<svg aria-hidden="true" version="1.1" xmlns="http://www.w3.org/2000/svg" xmlns:xlink="http://www.w3.org/1999/xlink">
<defs>
<symbol id="icon-mastercard" viewBox="0 0 46 32">
<path d="M22.38 4.438c-1.706-1.181-3.58-1.772-5.619-1.772-1.362-0.003-2.708 0.285-3.95 0.845-1.22 0.534-2.325 1.302-3.251 2.259-0.929 0.979-1.665 2.124-2.17 3.375-0.539 1.301-0.814 2.697-0.809 4.105 0 1.444 0.269 2.819 0.809 4.124 0.505 1.251 1.242 2.397 2.171 3.375 0.923 0.956 2.024 1.724 3.24 2.26 1.254 0.563 2.573 0.845 3.96 0.845 2.040 0 3.913-0.591 5.619-1.772-1.718-1.442-2.958-3.371-3.558-5.532-0.627-2.153-0.624-4.441 0.009-6.593 0.607-2.153 1.843-4.075 3.549-5.521zM23.040 4.937c-1.655 1.337-2.857 3.152-3.441 5.198-0.613 2.041-0.616 4.217-0.009 6.26 0.582 2.046 1.788 3.86 3.45 5.188 1.662-1.328 2.868-3.142 3.45-5.188 0.606-2.043 0.603-4.218-0.010-6.259-0.583-2.047-1.784-3.863-3.439-5.201v0.001zM23.7 4.438c1.709 1.448 2.945 3.374 3.549 5.531 0.634 2.202 0.636 4.403 0.010 6.605-0.598 2.157-1.84 4.079-3.56 5.51 1.706 1.18 3.58 1.77 5.619 1.77 1.388 0 2.707-0.282 3.96-0.845 1.216-0.536 2.316-1.303 3.24-2.259 0.929-0.979 1.666-2.124 2.171-3.375 0.54-1.308 0.815-2.71 0.809-4.124 0.005-1.408-0.27-2.804-0.809-4.105-0.505-1.251-1.242-2.397-2.171-3.375-0.926-0.957-2.030-1.725-3.25-2.259-1.242-0.559-2.588-0.847-3.95-0.845-2.039 0-3.913 0.59-5.619 1.772zM38.52 19.479h0.141v-0.063h-0.342v0.064h0.141v0.353h0.060v-0.355zM39.1 19.834h0.079v-0.417h-0.1l-0.119 0.271-0.12-0.271h-0.1v0.417h0.060v-0.312l0.119 0.27h0.081l0.1-0.27v0.312zM38.94 29v0.042h-0.1v-0.063h0.1v0.020zM38.94 29.188h0.060l-0.081-0.105h0.041l0.019-0.020c0.013-0.013 0.020-0.035 0.020-0.063 0.001-0.023-0.006-0.045-0.020-0.063l-0.019-0.020h-0.18v0.271h0.060v-0.105h0.019l0.081 0.105zM13.7 27.771c0-0.264 0.073-0.479 0.22-0.646 0.075-0.084 0.168-0.149 0.272-0.192s0.216-0.063 0.328-0.057c0.239 0 0.433 0.087 0.58 0.261 0.148 0.178 0.226 0.404 0.22 0.635 0.010 0.235-0.068 0.466-0.22 0.646-0.072 0.082-0.161 0.147-0.262 0.19s-0.209 0.064-0.318 0.059c-0.112 0.006-0.225-0.014-0.328-0.057s-0.197-0.109-0.272-0.192c-0.152-0.18-0.23-0.411-0.22-0.646zM23.159 26.854c0.401 0 0.634 0.221 0.701 0.666h-1.4c0.067-0.444 0.3-0.666 0.7-0.666h-0.001zM30.28 27.771c0-0.264 0.074-0.479 0.22-0.646 0.072-0.082 0.161-0.147 0.262-0.19s0.209-0.064 0.318-0.059c0.241 0 0.436 0.087 0.59 0.261 0.154 0.173 0.23 0.384 0.23 0.635 0.010 0.235-0.068 0.466-0.22 0.646-0.075 0.084-0.168 0.149-0.272 0.192s-0.216 0.063-0.328 0.057c-0.109 0.004-0.218-0.016-0.318-0.059s-0.19-0.108-0.262-0.19c-0.152-0.18-0.23-0.411-0.22-0.646zM35.72 27.771c0-0.25 0.077-0.461 0.23-0.636 0.073-0.084 0.163-0.151 0.265-0.196s0.212-0.067 0.324-0.064c0.241 0 0.438 0.087 0.591 0.261 0.154 0.173 0.23 0.384 0.23 0.635 0 0.264-0.077 0.479-0.23 0.646-0.075 0.082-0.166 0.146-0.268 0.19s-0.212 0.064-0.322 0.060c-0.112 0.003-0.222-0.019-0.324-0.064s-0.193-0.113-0.266-0.197c-0.154-0.175-0.236-0.402-0.23-0.635zM38.88 29.271c-0.028-0-0.056-0.007-0.081-0.020-0.013 0-0.033-0.014-0.059-0.042-0.027-0.028-0.041-0.049-0.041-0.063-0.013-0.026-0.019-0.054-0.019-0.083 0-0.041 0.006-0.069 0.019-0.083 0-0.028 0.013-0.055 0.041-0.083l0.019-0.020c0.027 0 0.041-0.008 0.041-0.022 0.024-0.013 0.052-0.020 0.079-0.020 0.040 0 0.067 0.008 0.081 0.020l0.079 0.042 0.040 0.083v0.020c0.013 0.028 0.020 0.049 0.020 0.064l-0.020 0.019v0.064l-0.019 0.019-0.020 0.042c-0.026 0.028-0.054 0.042-0.081 0.042-0.013 0.013-0.038 0.020-0.079 0.020zM11.98 29.188h0.602v-1.772c0-0.333-0.097-0.6-0.291-0.801-0.193-0.202-0.457-0.31-0.791-0.324-0.426 0-0.74 0.166-0.94 0.5-0.187-0.333-0.486-0.499-0.9-0.499-0.155-0.002-0.307 0.035-0.444 0.108s-0.252 0.179-0.337 0.308v-0.333h-0.598v2.812h0.599v-1.563c0-0.499 0.22-0.75 0.66-0.75 0.401 0 0.6 0.25 0.6 0.75v1.562h0.58v-1.562c0-0.499 0.22-0.75 0.66-0.75 0.399 0 0.599 0.25 0.599 0.75v1.562l-0.001 0.001zM15.3 29.188h0.58v-2.813h-0.58v0.333c-0.101-0.132-0.231-0.238-0.381-0.31s-0.314-0.109-0.479-0.106c-0.181-0.004-0.36 0.031-0.526 0.103s-0.314 0.179-0.434 0.314c-0.253 0.278-0.38 0.632-0.38 1.062s0.128 0.785 0.38 1.062c0.12 0.135 0.268 0.243 0.434 0.315s0.345 0.107 0.526 0.103c0.374 0 0.66-0.14 0.86-0.417v0.355zM18.86 28.333c0-0.472-0.312-0.75-0.94-0.832l-0.28-0.042c-0.307-0.056-0.461-0.154-0.461-0.292 0-0.209 0.168-0.312 0.502-0.312 0.307 0 0.593 0.077 0.859 0.229l0.241-0.499c-0.294-0.196-0.66-0.293-1.101-0.293-0.346 0-0.62 0.084-0.819 0.251-0.098 0.080-0.176 0.182-0.228 0.298s-0.077 0.241-0.073 0.368c0 0.46 0.314 0.73 0.941 0.813l0.26 0.042c0.32 0.055 0.48 0.154 0.48 0.292 0 0.236-0.207 0.353-0.62 0.353-0.333 0-0.634-0.097-0.901-0.291l-0.26 0.479c0.333 0.236 0.721 0.355 1.161 0.355 0.387 0 0.69-0.084 0.909-0.251 0.105-0.076 0.19-0.176 0.248-0.292s0.086-0.244 0.082-0.374v-0.001zM21.46 29.042l-0.16-0.521c-0.158 0.093-0.338 0.143-0.521 0.146-0.253 0-0.38-0.154-0.38-0.458v-1.271h0.96v-0.563h-0.96v-0.854h-0.599v0.855h-0.561v0.562h0.561v1.271c0 0.694 0.314 1.042 0.94 1.042 0.256 0.007 0.508-0.066 0.721-0.209zM23.18 26.291c-0.181-0.004-0.36 0.031-0.526 0.103s-0.314 0.179-0.434 0.315c-0.253 0.278-0.38 0.632-0.38 1.062 0 0.444 0.131 0.803 0.39 1.073 0.26 0.271 0.59 0.407 0.991 0.407 0.439 0 0.806-0.133 1.1-0.397l-0.28-0.458c-0.212 0.198-0.491 0.309-0.781 0.312-0.452 0-0.726-0.229-0.819-0.687h2.020v-0.25c0-0.444-0.119-0.803-0.358-1.073-0.114-0.132-0.256-0.237-0.415-0.307s-0.332-0.104-0.507-0.1zM26.36 26.291c-0.144-0.004-0.286 0.034-0.41 0.108s-0.224 0.181-0.29 0.31v-0.333h-0.6v2.812h0.6v-1.583c0-0.486 0.192-0.73 0.58-0.73 0.125-0.002 0.248 0.027 0.36 0.083l0.179-0.584c-0.132-0.058-0.275-0.086-0.419-0.083zM26.959 27.771c0 0.43 0.131 0.785 0.39 1.062s0.611 0.417 1.050 0.417c0.388 0 0.708-0.111 0.96-0.333l-0.279-0.5c-0.241 0.179-0.474 0.264-0.7 0.25-0.111 0.003-0.221-0.017-0.322-0.060s-0.193-0.108-0.268-0.19c-0.158-0.178-0.24-0.409-0.23-0.646 0-0.264 0.077-0.479 0.23-0.646 0.074-0.082 0.166-0.146 0.267-0.189s0.211-0.064 0.322-0.060c0.256 0 0.503 0.088 0.701 0.25l0.279-0.499c-0.269-0.223-0.61-0.341-0.96-0.333-0.439 0-0.79 0.138-1.050 0.416s-0.39 0.632-0.39 1.062zM31.86 29.188h0.599v-2.813h-0.599v0.333c-0.094-0.134-0.22-0.243-0.367-0.316s-0.31-0.107-0.474-0.1c-0.182-0.004-0.363 0.032-0.53 0.104s-0.317 0.179-0.439 0.314c-0.261 0.278-0.39 0.632-0.39 1.062s0.129 0.785 0.39 1.062c0.122 0.135 0.272 0.242 0.439 0.314s0.348 0.107 0.53 0.104c0.374 0 0.653-0.14 0.841-0.417v0.355zM34.52 26.291c-0.144-0.004-0.286 0.034-0.41 0.108s-0.224 0.181-0.29 0.31v-0.333h-0.58v2.812h0.58v-1.583c0-0.486 0.192-0.73 0.58-0.73 0.125-0.002 0.248 0.027 0.36 0.083l0.179-0.584c-0.131-0.061-0.274-0.089-0.419-0.083zM37.32 29.188h0.58v-3.959h-0.58v1.48c-0.2-0.278-0.486-0.417-0.86-0.417-0.18-0.002-0.358 0.035-0.522 0.109s-0.31 0.183-0.428 0.318c-0.261 0.287-0.401 0.664-0.39 1.052 0 0.416 0.131 0.768 0.39 1.052s0.576 0.428 0.95 0.428c0.387 0 0.673-0.14 0.86-0.417v0.355zM38.88 28.771l-0.040 0.022h-0.060c-0.030 0.016-0.057 0.037-0.081 0.061-0.038 0.014-0.060 0.042-0.060 0.083-0.015 0.040-0.022 0.083-0.019 0.125 0 0.042 0.006 0.077 0.019 0.105 0 0.027 0.020 0.055 0.060 0.083 0.023 0.025 0.051 0.046 0.081 0.061 0.026 0.014 0.060 0.022 0.1 0.022 0.041 0.002 0.082-0.005 0.12-0.022 0-0.013 0.013-0.027 0.040-0.041l0.040-0.020c0.022-0.026 0.042-0.055 0.060-0.084 0.014-0.032 0.021-0.067 0.020-0.102 0.002-0.043-0.005-0.086-0.020-0.127-0.022-0.026-0.042-0.054-0.060-0.083 0-0.013-0.013-0.027-0.040-0.041l-0.040-0.022c-0.020-0.001-0.041-0.004-0.060-0.010s-0.040-0.009-0.060-0.010zM46.080 2.666v26.668c0 0.722-0.253 1.347-0.76 1.874-0.507 0.529-1.106 0.792-1.8 0.792h-40.96c-0.694 0-1.293-0.264-1.8-0.792-0.245-0.246-0.438-0.538-0.568-0.86s-0.196-0.666-0.192-1.013v-26.669c0-0.721 0.253-1.347 0.76-1.875 0.507-0.527 1.106-0.791 1.8-0.791h40.96c0.694 0 1.293 0.264 1.8 0.791 0.507 0.529 0.76 1.153 0.76 1.875z"></path>
</symbol>
<symbol id="icon-pay-pal" viewBox="0 0 46 32">
<path d="M14.899 16.209c0 0.513-0.169 0.941-0.509 1.28-0.162 0.166-0.357 0.297-0.572 0.385s-0.446 0.131-0.678 0.127c-0.387 0-0.698-0.111-0.931-0.333-0.233-0.224-0.349-0.529-0.349-0.918 0-0.515 0.166-0.947 0.499-1.302s0.748-0.531 1.24-0.531c0.374 0 0.684 0.115 0.931 0.343 0.246 0.23 0.37 0.545 0.37 0.947l-0.001 0.001zM30.6 13.105c0 0.582-0.146 0.979-0.439 1.187-0.294 0.209-0.733 0.314-1.321 0.314l-0.64 0.020 0.34-2.23c0.026-0.154 0.113-0.229 0.26-0.229h0.36c0.294 0 0.527 0.014 0.7 0.042 0.188 0.036 0.362 0.126 0.499 0.26 0.161 0.146 0.241 0.358 0.241 0.636zM37.62 16.209c0 0.499-0.17 0.923-0.511 1.271-0.158 0.167-0.348 0.299-0.56 0.389s-0.439 0.134-0.669 0.131c-0.388 0-0.701-0.11-0.941-0.333-0.241-0.221-0.36-0.527-0.36-0.916 0-0.515 0.166-0.947 0.499-1.302s0.748-0.531 1.24-0.531c0.374 0 0.684 0.115 0.931 0.343 0.246 0.23 0.37 0.545 0.37 0.947v0.001zM10.261 12.646c0-0.819-0.256-1.414-0.771-1.782-0.513-0.369-1.183-0.552-2.010-0.552h-3.2c-0.253 0-0.394 0.132-0.42 0.396l-1.3 8.499c-0.007 0.040-0.005 0.082 0.005 0.122s0.029 0.077 0.055 0.109c0.023 0.032 0.053 0.058 0.087 0.076s0.073 0.027 0.112 0.027h1.521c0.266 0 0.413-0.131 0.439-0.394l0.361-2.291c0.010-0.105 0.060-0.202 0.14-0.271 0.085-0.072 0.189-0.119 0.3-0.136 0.12-0.020 0.234-0.031 0.34-0.031s0.233 0.006 0.38 0.020c0.146 0.013 0.239 0.020 0.28 0.020 1.146 0 2.047-0.337 2.7-1.011 0.653-0.673 0.98-1.606 0.98-2.801zM16.44 19.146l0.819-5.437c0.007-0.040 0.006-0.082-0.004-0.122s-0.029-0.077-0.054-0.109c-0.023-0.032-0.053-0.058-0.088-0.076s-0.074-0.027-0.113-0.027h-1.519c-0.187 0-0.301 0.228-0.34 0.686-0.36-0.556-0.993-0.832-1.9-0.832-0.96 0-1.777 0.374-2.45 1.124-0.663 0.72-1.024 1.667-1.011 2.646 0 0.819 0.23 1.472 0.691 1.958s1.075 0.73 1.85 0.73c0.374 0 0.76-0.083 1.16-0.251 0.368-0.144 0.697-0.372 0.96-0.666-0.052 0.166-0.079 0.312-0.079 0.438 0 0.221 0.087 0.333 0.26 0.333h1.38c0.253 0 0.401-0.132 0.44-0.397v0.001zM25.38 13.668c-0.001-0.074-0.029-0.144-0.079-0.198-0.054-0.064-0.114-0.095-0.18-0.095h-1.54c-0.147 0-0.268 0.070-0.36 0.209l-2.121 3.25-0.879-3.124c-0.067-0.223-0.214-0.333-0.44-0.333h-1.5c-0.067 0-0.127 0.031-0.179 0.093-0.050 0.054-0.079 0.124-0.081 0.197 0 0.028 0.131 0.438 0.39 1.229l0.84 2.563c0.3 0.916 0.457 1.403 0.47 1.459-1.093 1.555-1.64 2.388-1.64 2.5 0 0.179 0.087 0.27 0.26 0.27h1.54c0.147 0 0.268-0.069 0.36-0.207l5.101-7.667c0.026-0.028 0.040-0.077 0.040-0.146v0.001zM32.98 12.646c0-0.819-0.256-1.414-0.771-1.782-0.513-0.369-1.183-0.552-2.010-0.552h-3.181c-0.266 0-0.413 0.132-0.439 0.396l-1.3 8.499c-0.007 0.040-0.005 0.082 0.005 0.122s0.029 0.077 0.055 0.109c0.023 0.032 0.053 0.058 0.087 0.076s0.073 0.027 0.112 0.027h1.64c0.16 0 0.268-0.090 0.32-0.269l0.361-2.418c0.010-0.105 0.060-0.201 0.14-0.27 0.085-0.072 0.189-0.119 0.3-0.136 0.12-0.020 0.234-0.031 0.34-0.031s0.233 0.006 0.38 0.020c0.146 0.013 0.239 0.020 0.28 0.020 1.147 0 2.047-0.337 2.7-1.011 0.653-0.673 0.98-1.606 0.98-2.801zM39.16 19.146l0.819-5.437c0.007-0.040 0.005-0.082-0.005-0.122s-0.029-0.077-0.055-0.109c-0.023-0.032-0.053-0.058-0.087-0.076s-0.073-0.027-0.112-0.027h-1.519c-0.187 0-0.301 0.228-0.34 0.686-0.346-0.556-0.979-0.832-1.9-0.832-0.96 0-1.777 0.374-2.45 1.124-0.663 0.72-1.024 1.667-1.011 2.646 0 0.819 0.23 1.472 0.691 1.958s1.075 0.73 1.85 0.73c0.387 0 0.781-0.083 1.18-0.251 0.399-0.166 0.713-0.388 0.94-0.666 0 0.013-0.013 0.077-0.040 0.187-0.022 0.082-0.035 0.166-0.040 0.251 0 0.221 0.086 0.333 0.26 0.333h1.38c0.253 0 0.401-0.132 0.44-0.397v0.001zM43.52 10.624v-0.022c0-0.193-0.087-0.291-0.26-0.291h-1.481c-0.147 0-0.234 0.077-0.26 0.229l-1.3 8.666-0.020 0.042c0 0.069 0.027 0.136 0.081 0.198 0.024 0.030 0.055 0.053 0.089 0.070s0.072 0.024 0.111 0.024h1.32c0.253 0 0.394-0.132 0.42-0.397l1.302-8.517v-0.003zM7.84 13.414c-0.067 0.486-0.241 0.806-0.52 0.96-0.28 0.152-0.681 0.228-1.201 0.228l-0.659 0.022 0.339-2.23c0.027-0.154 0.114-0.229 0.26-0.229h0.38c0.534 0 0.92 0.081 1.161 0.239 0.239 0.16 0.32 0.497 0.239 1.011v-0.001zM46.080 2.668v26.668c0 0.722-0.253 1.347-0.76 1.874-0.507 0.529-1.106 0.792-1.8 0.792h-40.96c-0.694 0-1.293-0.264-1.8-0.792-0.245-0.246-0.438-0.539-0.569-0.861s-0.196-0.666-0.192-1.013v-26.669c0-0.721 0.253-1.347 0.76-1.875 0.507-0.527 1.106-0.791 1.8-0.791h40.96c0.694 0 1.293 0.264 1.8 0.791 0.507 0.529 0.76 1.153 0.76 1.875v0.001z"></path>
</symbol>
<symbol id="icon-discover" viewBox="0 0 46 32">
<path d="M6.259 13.521c0 0.708-0.239 1.293-0.719 1.75-0.387 0.362-0.98 0.543-1.779 0.543h-0.34v-4.584h0.339c0.814 0 1.408 0.187 1.78 0.563 0.48 0.43 0.721 1.006 0.721 1.728h-0.001zM41.779 12.167c0 0.722-0.426 1.084-1.28 1.084h-0.379v-2.104h0.399c0.841 0 1.261 0.34 1.261 1.020h-0.001zM7.601 13.521c0-1.028-0.333-1.865-0.998-2.51-0.668-0.646-1.527-0.969-2.58-0.969h-1.902v6.938h1.901c0.986 0 1.779-0.264 2.38-0.792 0.385-0.328 0.693-0.737 0.9-1.198s0.31-0.963 0.3-1.468zM8.202 16.979h1.299v-6.938h-1.302v6.938h0.003zM14.602 14.875c0-0.556-0.137-0.986-0.411-1.292s-0.777-0.598-1.51-0.876c-0.387-0.138-0.65-0.27-0.79-0.396-0.068-0.059-0.122-0.133-0.158-0.216s-0.054-0.172-0.052-0.263c0-0.223 0.090-0.407 0.269-0.553 0.198-0.15 0.443-0.227 0.691-0.218 0.387 0 0.74 0.187 1.060 0.562l0.68-0.916c-0.526-0.505-1.229-0.782-1.958-0.771-0.589 0-1.082 0.191-1.481 0.572-0.194 0.179-0.347 0.397-0.451 0.639s-0.154 0.504-0.15 0.768c0 0.486 0.12 0.87 0.36 1.156 0.241 0.285 0.667 0.538 1.28 0.76 0.494 0.18 0.794 0.312 0.901 0.397 0.252 0.166 0.379 0.402 0.379 0.708 0.003 0.129-0.020 0.258-0.068 0.377s-0.12 0.229-0.211 0.32c-0.094 0.094-0.207 0.167-0.331 0.215s-0.257 0.071-0.39 0.066c-0.64 0-1.114-0.306-1.421-0.916l-0.838 0.832c0.586 0.89 1.353 1.335 2.299 1.335 0.681 0 1.234-0.212 1.66-0.636 0.428-0.422 0.64-0.975 0.64-1.656h0.001zM20.161 16.75v-1.604c-0.493 0.513-1.014 0.771-1.56 0.771-0.653 0-1.19-0.225-1.61-0.678-0.42-0.451-0.63-1.024-0.63-1.718 0-0.666 0.21-1.233 0.63-1.697 0.192-0.223 0.43-0.401 0.697-0.522s0.559-0.181 0.853-0.177c0.573 0 1.114 0.265 1.62 0.792v-1.604c-0.491-0.267-1.041-0.41-1.6-0.417-0.468-0.008-0.933 0.081-1.365 0.262s-0.821 0.45-1.144 0.79c-0.687 0.701-1.032 1.559-1.032 2.573s0.34 1.871 1.020 2.573c0.32 0.34 0.708 0.609 1.139 0.791s0.894 0.27 1.361 0.262c0.561 0 1.101-0.132 1.62-0.397v0.001zM44.8 29.333v-10.977c-0.867 0.556-1.83 1.139-2.89 1.75-1.060 0.612-2.643 1.425-4.749 2.438-2.161 1.037-4.36 1.993-6.592 2.865-2.286 0.896-5.069 1.83-8.349 2.802-3.279 0.973-6.639 1.792-10.080 2.458h31.38c0.346 0 0.646-0.132 0.9-0.396 0.123-0.123 0.219-0.269 0.284-0.43s0.098-0.333 0.096-0.507v-0.003zM27.78 13.563c0-1.042-0.353-1.932-1.060-2.668s-1.56-1.103-2.56-1.103c-1 0-1.853 0.367-2.56 1.103s-1.060 1.626-1.060 2.668c0 1.041 0.353 1.93 1.060 2.666s1.56 1.105 2.56 1.105c1 0 1.853-0.369 2.56-1.105s1.060-1.626 1.060-2.666zM30.82 17.168l2.88-7.126h-1.421l-1.798 4.667-1.78-4.667h-1.421l2.842 7.126h0.699zM34.28 16.979h3.68v-1.167h-2.381v-1.873h2.301v-1.167h-2.3v-1.542h2.381v-1.188h-3.683v6.938h0.001zM42.1 16.979h1.6l-2.1-2.917c1.014-0.221 1.521-0.874 1.521-1.958 0-0.653-0.207-1.16-0.621-1.521s-0.993-0.541-1.741-0.541h-1.939v6.938h1.3v-2.771h0.179l1.801 2.771zM46.080 2.792v26.417c0 0.778-0.256 1.437-0.771 1.979-0.236 0.26-0.525 0.467-0.847 0.607s-0.67 0.21-1.022 0.206h-40.803c-0.732 0-1.357-0.271-1.869-0.813-0.513-0.541-0.769-1.201-0.769-1.978v-26.418c0-0.778 0.256-1.437 0.771-1.979 0.236-0.26 0.525-0.467 0.847-0.607s0.67-0.21 1.022-0.206h40.8c0.733 0 1.357 0.271 1.87 0.813s0.771 1.201 0.771 1.979z"></path>
</symbol>
<symbol id="icon-visa" viewBox="0 0 46 32">
<path d="M39.501 17.958h-2.761c0.187-0.513 0.627-1.757 1.32-3.729l0.060-0.188c0.054-0.14 0.12-0.32 0.201-0.541 0.065-0.179 0.125-0.359 0.179-0.541l0.241 1.146 0.759 3.853 0.001 0.001zM10.619 16.604l-1.16-6.145c-0.147-0.75-0.648-1.126-1.5-1.126h-5.361l-0.038 0.273c4.147 1.097 6.834 3.43 8.060 7l-0.001-0.001zM14.199 9.334l-3.238 9.124-0.34-1.855c-0.347-0.973-0.914-1.871-1.7-2.698-0.787-0.826-1.66-1.441-2.62-1.843l2.701 10.624h3.5l5.22-13.353-3.521 0.001zM16.979 22.708h3.319l2.080-13.376h-3.319l-2.080 13.376zM32.339 9.667c-0.947-0.38-1.959-0.572-2.98-0.563-1.641 0-2.981 0.41-4.020 1.229-1.041 0.82-1.567 1.883-1.581 3.188-0.013 1.417 0.954 2.624 2.9 3.625 0.64 0.32 1.088 0.604 1.34 0.855 0.253 0.25 0.38 0.52 0.38 0.812 0 0.417-0.2 0.736-0.6 0.959-0.399 0.223-0.86 0.333-1.38 0.333-1.147 0-2.186-0.229-3.121-0.687l-0.439-0.229-0.461 3c0.987 0.472 2.221 0.708 3.7 0.708 1.733 0.014 3.123-0.396 4.17-1.229s1.583-1.944 1.61-3.333c0-1.472-0.934-2.68-2.801-3.625-0.653-0.347-1.126-0.64-1.421-0.876-0.292-0.236-0.439-0.499-0.439-0.791 0-0.306 0.164-0.573 0.49-0.803s0.796-0.343 1.409-0.343c0.934-0.014 1.76 0.152 2.481 0.499l0.3 0.166 0.461-2.895zM40.838 9.334h-2.56c-0.867 0-1.446 0.375-1.741 1.125l-4.919 12.25h3.48l0.7-2.001h4.239c0.067 0.307 0.201 0.973 0.401 2.001h3.081l-2.68-13.377-0.001 0.003zM46.080 2.666v26.668c0 0.722-0.253 1.347-0.76 1.874-0.507 0.529-1.106 0.792-1.8 0.792h-40.96c-0.694 0-1.293-0.264-1.8-0.792-0.245-0.246-0.438-0.538-0.568-0.86s-0.196-0.666-0.192-1.013v-26.669c0-0.721 0.253-1.347 0.76-1.875 0.507-0.527 1.106-0.791 1.8-0.791h40.96c0.694 0 1.293 0.264 1.8 0.791 0.507 0.529 0.76 1.153 0.76 1.875z"></path>
</symbol>
<symbol id="icon-facebook" viewBox="0 0 32 32">
<path d="M32 0.231v5.077h-5.815c-2.123 0-3.555 0.231-4.296 0.692s-1.111 1.154-1.111 2.077v3.635h10.852l-1.445 5.692h-9.407v14.596h-11.333v-14.596h-9.444v-5.692h9.444v-4.192c0-2.385 1.284-4.234 3.852-5.548s5.988-1.971 10.259-1.971c3.63 0 6.444 0.077 8.444 0.231z"></path>
</symbol>
<symbol id="icon-instagram" viewBox="0 0 32 32">
<path d="M21.333 16c0-1.472-0.521-2.729-1.563-3.771s-2.298-1.563-3.771-1.563c-1.472 0-2.729 0.521-3.771 1.563s-1.563 2.299-1.563 3.771c0 1.472 0.521 2.729 1.563 3.771s2.299 1.563 3.771 1.563c1.472 0 2.729-0.521 3.771-1.563s1.563-2.298 1.563-3.771zM24.208 16c0 2.278-0.799 4.215-2.396 5.813s-3.535 2.396-5.813 2.396c-2.278 0-4.215-0.799-5.813-2.396s-2.396-3.535-2.396-5.813c0-2.278 0.799-4.215 2.396-5.813s3.535-2.396 5.813-2.396c2.278 0 4.215 0.799 5.813 2.396s2.396 3.535 2.396 5.813zM26.458 7.458c0 0.528-0.188 0.979-0.562 1.354s-0.826 0.563-1.354 0.563c-0.528 0-0.979-0.188-1.354-0.563s-0.562-0.826-0.562-1.354c0-0.528 0.188-0.979 0.562-1.354s0.826-0.563 1.354-0.563c0.528 0 0.979 0.188 1.354 0.563s0.562 0.826 0.562 1.354zM16 2.875c-0.097 0-0.629-0.003-1.594-0.010s-1.698-0.007-2.198 0-1.17 0.028-2.010 0.063c-0.84 0.035-1.556 0.104-2.146 0.208s-1.087 0.233-1.49 0.385c-0.694 0.278-1.306 0.681-1.833 1.208s-0.931 1.139-1.208 1.833c-0.153 0.403-0.281 0.899-0.385 1.49s-0.174 1.306-0.208 2.146c-0.035 0.84-0.056 1.51-0.063 2.010s-0.007 1.233 0 2.198c0.007 0.965 0.010 1.497 0.010 1.594s-0.003 0.628-0.010 1.594c-0.007 0.965-0.007 1.698 0 2.198s0.028 1.17 0.063 2.010 0.104 1.556 0.208 2.146c0.104 0.59 0.233 1.087 0.385 1.49 0.278 0.694 0.681 1.306 1.208 1.833s1.139 0.931 1.833 1.208c0.403 0.153 0.899 0.281 1.49 0.385s1.306 0.174 2.146 0.208c0.84 0.035 1.51 0.056 2.010 0.063s1.233 0.007 2.198 0c0.965-0.007 1.497-0.010 1.594-0.010s0.628 0.003 1.594 0.010c0.965 0.007 1.698 0.007 2.198 0s1.17-0.028 2.010-0.063c0.84-0.035 1.556-0.104 2.146-0.208s1.087-0.233 1.49-0.385c0.694-0.278 1.306-0.681 1.833-1.208s0.931-1.139 1.208-1.833c0.153-0.403 0.281-0.899 0.385-1.49s0.174-1.306 0.208-2.146c0.035-0.84 0.056-1.51 0.063-2.010s0.007-1.233 0-2.198-0.010-1.497-0.010-1.594c0-0.097 0.003-0.629 0.010-1.594s0.007-1.698 0-2.198-0.028-1.17-0.063-2.010c-0.035-0.84-0.104-1.556-0.208-2.146s-0.233-1.087-0.385-1.49c-0.278-0.694-0.681-1.306-1.208-1.833s-1.139-0.931-1.833-1.208c-0.403-0.153-0.899-0.281-1.49-0.385s-1.306-0.174-2.146-0.208c-0.84-0.035-1.51-0.056-2.010-0.063s-1.233-0.007-2.198 0-1.497 0.010-1.594 0.010zM32 16c0 3.18-0.035 5.382-0.104 6.604-0.139 2.889-1 5.125-2.583 6.708s-3.819 2.445-6.708 2.583c-1.222 0.069-3.424 0.104-6.604 0.104s-5.382-0.035-6.604-0.104c-2.889-0.139-5.125-1-6.708-2.583s-2.444-3.819-2.583-6.708c-0.069-1.222-0.104-3.424-0.104-6.604s0.035-5.382 0.104-6.604c0.139-2.889 1-5.125 2.583-6.708s3.819-2.444 6.708-2.583c1.222-0.069 3.424-0.104 6.604-0.104s5.382 0.035 6.604 0.104c2.889 0.139 5.125 1 6.708 2.583s2.445 3.819 2.583 6.708c0.069 1.222 0.104 3.424 0.104 6.604z"></path>
</symbol>
<symbol id="icon-cactus" viewBox="0 0 32 32">
<path d="M31.813 18.678c0.22-1.878 0.385-3.165 0-5.322s-1.376-3.548-3.302-3.548c-1.926 0-2.477 1.217-2.642 2.852-0.165 1.67-0.22 5.739-0.385 7.513-0.165 1.809-1.706 2.052-4.513 2.052-0.055-0.974 0.22-3.861-0.44-7.409s-1.486-6.157-1.596-9.843c-0.11-3.722-2.312-4.765-3.192-4.765s-3.523-0.383-3.908 2.957c-0.385 3.374-1.156 6.504-1.541 11.965-4.458 0.139-4.458-0.939-4.568-2.643s0-5.461 0-5.461c0.055-2.4-1.486-3.165-3.357-3.409-1.871-0.209-2.147 0.383-2.147 1.809s0.22 5.948 0.44 9.043c0.22 3.096 1.761 4.104 3.468 4.591s6.385-0.313 6.385-0.313c0 0 0.44 9.6 0.661 12.243-1.101 0-2.147 0-3.247 0.035-1.926 0.035-3.853 0.070-5.834 0.104-0.275 0-0.605 0-0.881 0.104-0.33 0.104-0.22 0.487 0.165 0.487 8.146 0.174 16.292 0.383 24.438 0.174 0.66 0 1.376-0.070 1.926-0.278 0.22-0.070 0.11-0.348-0.11-0.348-1.926-0.070-3.908-0.104-5.834-0.174-0.11-0.626-0.33-1.913-0.55-3.722 4.844-0.73 8.531-1.704 9.797-2.609 1.321-0.87 0.55-4.243 0.771-6.087zM4.789 5.6c0.605 1.252 0.44 2.748 0.385 6.017-0.055 3.13 1.046 3.513 1.541 3.652 0.66 0.209 1.266 0.243 2.092 0.313 0.11 0 0.22 0.070 0.275 0.139-1.156 0-2.422 0.139-3.082-0.557-0.55-0.591-0.716-1.322-0.881-1.983-0.275-1.113-0.385-2.191-0.495-3.304-0.11-1.043-0.165-2.087-0.22-3.13 0-0.522-0.11-1.078-0.33-1.6-0.165-0.313-0.44-0.626-0.66-0.904 0.44 0.070 0.936 0.452 1.376 1.357zM2.972 4.243c0.055 0 0.055-0.035 0.11-0.035 0.495 0.626 0.881 1.183 1.046 1.948 0.11 0.626 0.055 1.287 0.11 1.948 0.055 1.217 0.22 2.435 0.385 3.652 0.165 1.043 0.22 2.296 0.991 3.27s1.981 0.904 3.523 0.904l-0.055 0.035c-0.22 0.104-0.495 0.209-0.716 0.278-1.266-0.070-2.367-0.243-3.027-1.078-0.385-0.452-0.605-1.009-0.716-1.53-0.33-1.043-0.55-2.087-0.55-3.096-0.11-1.948 0.33-4.348-1.321-6.122 0.055-0.070 0.11-0.139 0.22-0.174zM5.009 16.139c-1.816-0.87-1.486-3.478-1.706-5.287-0.165-1.809-0.275-4.209-0.22-5.043 0-0.209 0-0.383-0.055-0.557 1.266 2.122 0.22 4.696 0.771 6.852 0.22 1.043 0.44 2.122 1.101 3.096 0.605 0.8 1.541 1.043 2.697 1.148-0.771 0.209-1.706 0.209-2.587-0.209zM19.099 13.53c0.385 2.261 0.33 6.052 0.605 8.104 0.22 2.052 1.046 5.913 1.266 7.757 0.11 1.043 0.165 1.496-0.165 1.704-0.495-1.6-0.716-3.27-0.991-4.904-0.275-1.704-0.44-3.443-0.66-5.148-0.22-1.635-0.44-3.27-0.55-4.904-0.055-0.591 0-1.183 0-1.774 0-0.835-0.22-1.635-0.275-2.47-0.11-1.426-0.275-2.852-0.44-4.278-0.11-1.391-0.11-2.817-0.22-4.209 0.22 0.939 0.385 2.087 0.385 2.957 0.055 1.913 0.66 4.904 1.046 7.165zM19.319 30.017c-0.165-0.87-0.44-1.739-0.495-2.643-0.11-1.287-0.165-2.539-0.275-3.826-0.11-1.217-0.22-2.435-0.33-3.652-0.275-3.2-0.55-6.435-0.771-9.635-0.165-2.887-0.495-5.774-0.495-8.626 0.11 0.070 0.165 0.209 0.275 0.348 0.165 1.6 0.11 3.2 0.275 4.8 0.165 1.391 0.385 2.783 0.44 4.174 0.055 1.496 0.385 2.957 0.33 4.417-0.055 1.704 0.33 3.443 0.495 5.148 0.22 1.809 0.385 3.617 0.716 5.426 0.275 1.704 0.495 3.478 1.046 5.183-0.275 0-0.605 0-0.881-0.035-0.275-0.313-0.275-0.696-0.33-1.078zM16.622 1.53c0 1.078 0.11 2.191 0.165 3.27 0.11 1.391 0.055 2.783 0.165 4.174 0.165 1.6 0.275 3.165 0.385 4.765 0.275 3.13 0.495 6.261 0.771 9.391 0.11 1.426 0.22 2.852 0.275 4.278 0.055 0.835 0.275 1.6 0.44 2.435 0.11 0.348 0 0.974 0.22 1.287-0.11 0-0.275 0-0.44 0-0.165-0.696-0.33-1.391-0.495-2.052-0.22-0.939-0.055-1.843-0.165-2.783-0.165-1.148-0.495-2.261-0.495-3.409 0-1.322 0.11-2.713-0.11-4.035-0.44-2.678-0.385-5.322-0.605-8-0.275-2.783-0.33-5.565-0.385-8.348 0.055-0.557 0.11-0.87 0.11-0.87 0.055-0.070 0.11-0.104 0.165-0.104zM16.127 4.8c0.055 1.635 0.11 3.235 0.22 4.87 0.165 2.748 0.165 5.53 0.55 8.278 0.22 1.461 0.275 2.887 0.275 4.348 0 1.148 0.22 2.296 0.44 3.443 0.165 0.87 0.055 1.774 0.165 2.643 0.11 0.904 0.385 1.809 0.605 2.678-0.11 0-0.22 0-0.33 0-0.275-0.139-0.33-0.348-0.385-0.557-0.055-0.417-1.706-13.078-1.871-18.191-0.11-2.643 0.11-5.426 0.33-7.513zM29.337 21.252c-0.22-1.878 0.11-4.313 0.275-6.435 0.165-2.157-0.165-2.922-0.605-3.687-0.11-0.174-0.275-0.313-0.33-0.452 0.495 0.278 0.881 0.696 1.101 1.217 0.22 0.557 0.22 1.148 0.22 1.704l-0.165 11.165c-0.055 0-0.11 0.035-0.11 0.035s-0.165-1.67-0.385-3.548zM30.162 24.626l0.165-11.061c0-0.557 0-1.183-0.22-1.739-0.22-0.591-0.715-1.113-1.376-1.426 0.055-0.035 0.055-0.035 0.11-0.035 0.055-0.035 0.11-0.035 0.22-0.035 0.715 0.487 1.211 1.183 1.486 1.948 0.275 0.904 0.165 1.843 0.11 2.713v0.209c-0.275 3.026-0.275 6.087 0.055 9.113-0.275 0.139-0.44 0.243-0.55 0.313zM31.208 16.8c-0.11 2.087-0.165 3.965 0 5.878 0.055 0.557-0.055 0.974-0.275 1.287-0.275-2.887-0.275-5.843-0.055-8.73v-0.209c0.11-0.904 0.165-1.878-0.11-2.783-0.22-0.661-0.605-1.252-1.101-1.739 0.44 0.209 0.826 0.626 1.101 1.287 0.44 1.148 0.55 2.922 0.44 5.009z"></path>
</symbol>
<symbol id="icon-Frame-5" viewBox="0 0 32 32">
<path d="M16 32c8.837 0 16-7.163 16-16s-7.163-16-16-16c-8.837 0-16 7.163-16 16s7.163 16 16 16z"></path>
<path d="M16.552 1.208l0.324 0.031-0.154 1.896 1.11 0.092-0.015 0.277-1.433-0.123 0.17-2.173z"></path>
<path d="M18.447 2.519c0.17-0.678 0.539-1.048 1.11-0.894 0.57 0.139 0.724 0.616 0.555 1.295s-0.54 1.033-1.11 0.894c-0.555-0.154-0.709-0.632-0.555-1.295zM19.804 2.827c0.092-0.354 0.154-0.832-0.308-0.956-0.462-0.108-0.632 0.339-0.709 0.709-0.092 0.354-0.154 0.832 0.308 0.956 0.447 0.108 0.616-0.354 0.709-0.709z"></path>
<path d="M20.913 2.025l0.308 0.139-0.092 1.233-0.077 0.724 0.462-0.555 0.817-0.94 0.308 0.123-1.557 1.711-0.324-0.139 0.154-2.296z"></path>
<path d="M23.271 3.104l1.202 0.755-0.139 0.231-0.925-0.586-0.355 0.555 0.801 0.509-0.139 0.231-0.801-0.509-0.37 0.586 0.925 0.586-0.139 0.231-1.202-0.755 1.141-1.834z"></path>
<path d="M25.83 6.772c0.57-0.478 0.801-0.416 0.94-0.247 0.092 0.108 0.108 0.231 0.046 0.37l0.123-0.108 0.17 0.2-0.956 0.801c-0.123 0.108-0.123 0.2-0.046 0.293s0.169 0.092 0.293 0l0.848-0.709c0.339-0.277 0.493-0.524 0.185-0.878-0.216-0.262-0.416-0.277-0.586-0.139l-0.185-0.216c0.185-0.154 0.57-0.277 0.986 0.216 0.524 0.617 0.077 1.002-0.216 1.248l-0.848 0.694c-0.308 0.262-0.555 0.092-0.678-0.046-0.17-0.2-0.123-0.37-0.046-0.462-0.185 0.046-0.324 0.015-0.447-0.123-0.139-0.2-0.139-0.432 0.416-0.894zM25.891 7.635l0.786-0.663c0.031-0.077 0.015-0.17-0.031-0.247-0.092-0.108-0.2-0.077-0.616 0.262s-0.462 0.447-0.37 0.555c0.046 0.092 0.139 0.123 0.231 0.092z"></path>
<path d="M29.529 9.932l0.524 1.325-0.262 0.108-0.416-1.033-0.678 0.262 0.354 0.909-0.247 0.108-0.354-0.909-0.832 0.339-0.123-0.293 2.035-0.817z"></path>
<path d="M28.465 12.567l0.108 0.524 1.588-0.354-0.108-0.524 0.262-0.062 0.293 1.341-0.262 0.062-0.108-0.509-1.588 0.354 0.108 0.509-0.262 0.062-0.293-1.341 0.262-0.062z"></path>
<path d="M30.746 14.463l0.031 0.555c0.031 0.555-0.185 0.909-0.601 0.94-0.354 0.015-0.586-0.185-0.678-0.478l-0.817 0.724-0.031-0.401 0.771-0.647-0.015-0.293-0.801 0.046-0.015-0.324 2.158-0.123zM29.668 14.848l0.015 0.247c0.031 0.401 0.2 0.555 0.447 0.539s0.401-0.185 0.385-0.586l-0.016-0.247-0.832 0.046z"></path>
<path d="M29.282 16.544l-0.031 0.308c-0.247-0.015-0.401 0.139-0.432 0.462-0.031 0.293 0.062 0.493 0.293 0.509 0.169 0.015 0.262-0.092 0.339-0.277l0.216-0.447c0.123-0.247 0.308-0.447 0.616-0.416 0.385 0.031 0.555 0.385 0.509 0.817s-0.277 0.724-0.724 0.678l0.031-0.308c0.308 0.015 0.401-0.201 0.416-0.401 0.031-0.277-0.077-0.447-0.262-0.462-0.139-0.015-0.247 0.077-0.324 0.247l-0.216 0.447c-0.154 0.339-0.324 0.478-0.616 0.447-0.447-0.046-0.601-0.416-0.555-0.863 0.046-0.493 0.308-0.786 0.74-0.74z"></path>
<path d="M30.114 19.58l0.185-0.709 0.262 0.077-0.462 1.726-0.262-0.077 0.185-0.709-1.834-0.478 0.077-0.308 1.849 0.478z"></path>
<path d="M28.804 23.51l-0.37 0.57c-0.247 0.385-0.616 0.539-0.925 0.324-0.185-0.123-0.247-0.293-0.201-0.509-0.154 0.123-0.401 0.216-0.632 0.062-0.324-0.2-0.339-0.616-0.092-1.002l0.401-0.616 1.819 1.171zM27.047 22.74l-0.231 0.339c-0.185 0.293-0.123 0.493 0.046 0.601 0.185 0.123 0.37 0.062 0.555-0.231l0.216-0.339-0.586-0.37zM27.849 23.279l-0.17 0.262c-0.185 0.277-0.185 0.462 0 0.586 0.17 0.108 0.355 0.077 0.54-0.216l0.185-0.277-0.555-0.355z"></path>
<path d="M26.061 24.173l-0.355 0.401 1.202 1.094 0.355-0.401 0.2 0.185-0.925 1.017-0.2-0.185 0.354-0.385-1.202-1.094-0.355 0.385-0.2-0.185 0.925-1.017 0.2 0.185z"></path>
<path d="M25.26 27.255l0.57-0.462 0.17 0.216-1.387 1.125-0.17-0.216 0.57-0.462-1.187-1.48 0.247-0.2 1.187 1.48z"></path>
<path d="M23.965 28.55l-1.233 0.709-0.139-0.231 0.956-0.539-0.324-0.57-0.832 0.478-0.139-0.231 0.832-0.478-0.339-0.601-0.956 0.539-0.139-0.231 1.233-0.709 1.079 1.865z"></path>
<path d="M19.834 29.968c0.077 0.385-0.108 0.601-0.355 0.647-0.2 0.046-0.447-0.046-0.555-0.277-0.015 0.247-0.2 0.432-0.401 0.478-0.231 0.046-0.493-0.077-0.57-0.462-0.092-0.462 0.077-1.218 0.586-1.896 0.755 0.416 1.202 1.048 1.295 1.51z"></path>
<path d="M14.995 30.831l-0.324-0.031 0.216-1.88-1.11-0.123 0.031-0.277 1.418 0.17-0.231 2.142z"></path>
<path d="M13.115 29.475c-0.185 0.678-0.57 1.017-1.141 0.863-0.555-0.154-0.709-0.632-0.509-1.31 0.185-0.678 0.57-1.017 1.141-0.863 0.555 0.154 0.694 0.647 0.509 1.31zM11.789 29.105c-0.092 0.355-0.185 0.832 0.277 0.956s0.632-0.324 0.74-0.678c0.092-0.354 0.185-0.832-0.277-0.955s-0.647 0.339-0.74 0.678z"></path>
<path d="M10.649 29.876l-0.308-0.139 0.139-1.233 0.092-0.724-0.478 0.539-0.848 0.909-0.308-0.139 1.603-1.649 0.324 0.154-0.216 2.281z"></path>
<path d="M8.321 28.72l-1.171-0.786 0.154-0.231 0.909 0.616 0.37-0.54-0.786-0.524 0.154-0.231 0.786 0.524 0.385-0.586-0.909-0.616 0.154-0.231 1.156 0.801-1.202 1.803z"></path>
<path d="M5.886 24.974c-0.586 0.462-0.817 0.385-0.94 0.216-0.092-0.123-0.108-0.231-0.031-0.385l-0.123 0.108-0.154-0.2 0.986-0.77c0.123-0.092 0.139-0.201 0.062-0.293s-0.17-0.108-0.293 0l-0.878 0.678c-0.354 0.277-0.509 0.509-0.216 0.863 0.216 0.277 0.416 0.293 0.586 0.154l0.17 0.231c-0.2 0.154-0.57 0.262-0.971-0.247-0.493-0.632-0.031-1.002 0.247-1.233l0.863-0.678c0.324-0.246 0.555-0.077 0.678 0.077 0.154 0.2 0.108 0.37 0.031 0.462 0.185-0.031 0.324 0 0.432 0.139 0.123 0.2 0.123 0.416-0.447 0.878zM5.855 24.096l-0.801 0.632c-0.031 0.077-0.031 0.17 0.031 0.246 0.092 0.108 0.2 0.092 0.617-0.246s0.478-0.432 0.385-0.539c-0.062-0.077-0.154-0.108-0.231-0.092z"></path>
<path d="M2.295 21.691l-0.478-1.356 0.262-0.092 0.37 1.048 0.678-0.246-0.324-0.925 0.262-0.092 0.324 0.925 0.848-0.308 0.108 0.308-2.050 0.74z"></path>
<path d="M3.436 19.102l-0.092-0.524-1.603 0.293 0.092 0.524-0.262 0.046-0.247-1.356 0.262-0.046 0.092 0.524 1.603-0.293-0.092-0.524 0.262-0.046 0.247 1.356-0.262 0.046z"></path>
<path d="M1.216 17.129l-0.015-0.57c-0.015-0.555 0.2-0.909 0.632-0.925 0.354-0.015 0.586 0.2 0.663 0.509l0.848-0.694 0.015 0.401-0.786 0.632 0.015 0.293 0.801-0.015 0.015 0.324-2.189 0.046zM2.31 16.775v-0.247c-0.015-0.416-0.185-0.555-0.432-0.555s-0.401 0.17-0.401 0.57v0.247l0.832-0.016z"></path>
<path d="M2.742 15.095l0.046-0.308c0.247 0.015 0.416-0.123 0.447-0.447 0.031-0.293-0.046-0.493-0.262-0.524-0.17-0.015-0.262 0.077-0.354 0.262l-0.231 0.447c-0.123 0.247-0.324 0.447-0.632 0.401-0.385-0.046-0.539-0.416-0.493-0.832 0.062-0.432 0.308-0.709 0.755-0.663l-0.046 0.308c-0.308-0.031-0.401 0.185-0.432 0.401-0.031 0.277 0.077 0.447 0.247 0.462 0.139 0.015 0.247-0.062 0.339-0.231l0.231-0.447c0.17-0.339 0.339-0.478 0.632-0.432 0.447 0.062 0.586 0.432 0.524 0.878-0.062 0.493-0.339 0.786-0.771 0.724z"></path>
<path d="M2.018 12.028l-0.2 0.709-0.262-0.077 0.509-1.711 0.262 0.077-0.216 0.709 1.819 0.539-0.092 0.308-1.819-0.555z"></path>
<path d="M3.451 8.144l0.385-0.555c0.262-0.385 0.632-0.509 0.94-0.308 0.185 0.123 0.231 0.308 0.185 0.509 0.154-0.123 0.401-0.2 0.632-0.031 0.308 0.216 0.324 0.632 0.062 1.017l-0.432 0.617-1.772-1.248zM4.391 8.406l0.185-0.262c0.185-0.262 0.2-0.447 0.015-0.586-0.154-0.108-0.354-0.092-0.539 0.185l-0.185 0.277 0.524 0.385zM5.193 8.961l0.231-0.339c0.2-0.293 0.139-0.493-0.015-0.601-0.17-0.123-0.37-0.062-0.555 0.2l-0.231 0.354 0.57 0.385z"></path>
<path d="M6.225 7.574l0.37-0.385-1.171-1.125-0.37 0.385-0.2-0.185 0.956-1.002 0.2 0.185-0.37 0.385 1.171 1.125 0.37-0.385 0.2 0.185-0.956 1.002-0.2-0.185z"></path>
<path d="M7.119 4.522l-0.586 0.447-0.17-0.216 1.433-1.079 0.17 0.216-0.586 0.447 1.141 1.51-0.262 0.185-1.141-1.51z"></path>
<path d="M8.46 3.274l1.248-0.663 0.123 0.247-0.971 0.509 0.308 0.586 0.848-0.447 0.123 0.247-0.848 0.447 0.324 0.617 0.971-0.509 0.123 0.247-1.233 0.632-1.017-1.911z"></path>
<path d="M12.621 1.979c-0.062-0.385 0.139-0.601 0.37-0.632 0.2-0.031 0.447 0.062 0.539 0.293 0.015-0.247 0.216-0.416 0.416-0.462 0.231-0.046 0.493 0.092 0.555 0.478 0.077 0.462-0.123 1.218-0.647 1.88-0.724-0.447-1.156-1.094-1.233-1.557z"></path>
<path d="M17.331 21.63c-0.492 0-2.17-0.132-2.3-0.181-0.008-0.031-0.016-0.061-0.025-0.092 0 0-0.073-0.261-0.087-0.314l-0.051-0.186c-0.030-0.11-0.061-0.225-0.092-0.337-0.020-0.071-0.042-0.142-0.064-0.211-0.011-0.035-0.042-0.135-0.042-0.135-0.013-0.042-0.025-0.083-0.036-0.124-0.020-0.072-0.039-0.144-0.058-0.216-0.037-0.139-0.075-0.281-0.116-0.421-0.042-0.145-0.079-0.294-0.116-0.438-0.022-0.087-0.044-0.177-0.068-0.265-0.020-0.074-0.043-0.148-0.065-0.219-0.014-0.045-0.028-0.090-0.042-0.135-0.095-0.321-0.175-0.654-0.238-0.99-0.035-0.186-0.054-0.356-0.058-0.523-0.003-0.097-0.005-0.195-0.007-0.293l-0-0.018c-0.002-0.121-0.005-0.245-0.008-0.366-0.007-0.232-0.015-0.439-0.024-0.634-0.003-0.067-0.009-0.135-0.015-0.201-0.004-0.048-0.008-0.093-0.012-0.138-0.005-0.071-0.008-0.143-0.012-0.213l-0.012-0.212c-0.007-0.12-0.014-0.242-0.018-0.361-0.009-0.25-0.014-0.47-0.017-0.673-0.002-0.156-0-0.326 0.005-0.519 0.002-0.096 0.008-0.193 0.013-0.287 0.003-0.053 0.006-0.105 0.008-0.157 0.001-0.028 0.002-0.056 0.003-0.085 0.001-0.037 0.002-0.069 0.003-0.1 0.001-0.022 0.003-0.043 0.005-0.064 0.001-0.016 0.003-0.033 0.004-0.048 0.006-0.080 0.011-0.16 0.017-0.24 0.007-0.103 0.025-0.185 0.056-0.257 0.027-0.064 0.059-0.098 0.102-0.113 0.033-0.011 0.064-0.017 0.092-0.017 0.044 0 0.085 0.014 0.12 0.043 0.070 0.056 0.116 0.133 0.134 0.229l0.013 0.062c0.012 0.055 0.023 0.109 0.029 0.163 0.013 0.113 0.020 0.214 0.022 0.307 0.001 0.085 0.011 0.169 0.020 0.249 0.003 0.029 0.006 0.057 0.009 0.086 0.005 0.051 0.009 0.102 0.014 0.153 0.006 0.067 0.012 0.136 0.019 0.204 0.011 0.104 0.025 0.209 0.038 0.311l0.019 0.152c0.011 0.088 0.022 0.179 0.035 0.267 0.016 0.115 0.035 0.237 0.059 0.385 0.002 0.016 0.001 0.026-0.006 0.039-0.045 0.088-0.073 0.182-0.084 0.281-0.012 0.115-0.013 0.235-0.003 0.368l0.005 0.067c0.005 0.074 0.011 0.15 0.021 0.225 0.013 0.091 0.028 0.182 0.043 0.271 0.014 0.083 0.026 0.16 0.037 0.238 0.025 0.171 0.063 0.34 0.1 0.504 0.014 0.062 0.028 0.122 0.041 0.183 0.026 0.121 0.050 0.219 0.074 0.307 0.014 0.049 0.033 0.096 0.051 0.142 0.006 0.016 0.013 0.032 0.019 0.048 0.033 0.085 0.075 0.183 0.139 0.272 0.072 0.1 0.166 0.162 0.278 0.183 0.023 0.004 0.047 0.007 0.071 0.007 0.058 0 0.115-0.013 0.17-0.039 0.061-0.029 0.121-0.062 0.178-0.095 0.011-0.007 0.016-0.007 0.019-0.007s0.007 0.001 0.011 0.003c0.049 0.025 0.105 0.041 0.177 0.050 0.017 0.002 0.035 0.003 0.051 0.003 0.1 0 0.194-0.035 0.288-0.107 0.109-0.083 0.178-0.194 0.211-0.34 0.008-0.033 0.015-0.066 0.024-0.099 0.011-0.044 0.020-0.082 0.028-0.119 0.002-0.007 0.003-0.014 0.004-0.022 0.014 0.020 0.027 0.040 0.041 0.060 0.028 0.041 0.056 0.081 0.082 0.122 0.046 0.072 0.082 0.142 0.11 0.213 0.025 0.064 0.063 0.118 0.1 0.169 0.012 0.015 0.022 0.032 0.034 0.047 0.031 0.045 0.063 0.091 0.106 0.129 0.004 0.004 0.007 0.007 0.010 0.009 0 0 0.141 0.11 0.189 0.148 0.012 0.009 0.025 0.018 0.041 0.021 0.004 0.001 0.009 0.001 0.014 0.001 0.013 0 0.030-0.003 0.043-0.015 0.010-0.010 0.015-0.022 0.014-0.035-0-0.015-0.009-0.030-0.023-0.043l-0.041-0.035c-0.036-0.031-0.074-0.063-0.112-0.093-0.040-0.031-0.081-0.066-0.111-0.11l-0.035-0.050c-0.032-0.047-0.062-0.090-0.090-0.133-0.008-0.012-0.014-0.026-0.021-0.041-0.004-0.009-0.008-0.017-0.012-0.026l-0.027-0.054c-0.026-0.054-0.052-0.107-0.081-0.156-0.020-0.033-0.043-0.066-0.064-0.095-0.017-0.024-0.035-0.049-0.051-0.074-0.038-0.061-0.075-0.119-0.102-0.18-0.064-0.144-0.169-0.243-0.323-0.303-0.179-0.070-0.369-0.148-0.544-0.256-0.062-0.038-0.109-0.072-0.149-0.108-0.154-0.137-0.275-0.277-0.371-0.428-0.036-0.056-0.063-0.12-0.083-0.192-0.012-0.042-0.010-0.088 0.006-0.145 0.017-0.059 0.045-0.115 0.088-0.175l0.012 0.010c0.025 0.017 0.048 0.033 0.071 0.052 0.117 0.097 0.25 0.173 0.367 0.241 0.060 0.035 0.128 0.068 0.2 0.099 0.029 0.012 0.059 0.019 0.088 0.025 0.014 0.003 0.028 0.006 0.042 0.010 0.007 0.002 0.014 0.003 0.020 0.003 0.027 0 0.049-0.017 0.057-0.045 0.023-0.077 0.044-0.155 0.065-0.227 0.003-0.012 0.006-0.023 0.008-0.036 0.082 0.022 0.166 0.037 0.251 0.044 0.052 0.004 0.167 0.013 0.167 0.013 0.068 0.005 0.137 0.011 0.206 0.015 0.099 0.007 0.182 0.045 0.255 0.117 0.080 0.079 0.152 0.172 0.22 0.287 0.018 0.030 0.036 0.061 0.053 0.091 0.033 0.058 0.064 0.111 0.096 0.162 0.043 0.069 0.089 0.135 0.135 0.195 0.030 0.040 0.066 0.075 0.1 0.11l0.013 0.013c0.030 0.031 0.063 0.061 0.099 0.092 0.038 0.032 0.073 0.072 0.115 0.128l0.008 0.010c0.072 0.097 0.146 0.196 0.207 0.303s0.091 0.218 0.113 0.315c0.024 0.106 0.019 0.214 0.015 0.32l-0.003 0.067c-0.005 0.148-0.022 0.293-0.050 0.432l-0.005 0.020c-0.016 0.080-0.034 0.163-0.055 0.242-0.028 0.104-0.057 0.21-0.085 0.311-0.037 0.135-0.074 0.268-0.108 0.398-0.020 0.075-0.034 0.151-0.048 0.225 0 0-0.013 0.068-0.019 0.096l-0.024 0.114c-0.020 0.093-0.040 0.189-0.057 0.284-0.019 0.101-0.036 0.204-0.053 0.304l-0.026 0.154-0.024 0.138c-0.016 0.093-0.033 0.185-0.047 0.278-0.013 0.082-0.023 0.166-0.033 0.247l-0.015 0.12c-0.003 0.020-0.005 0.037-0.008 0.052-0.012 0.060-0.022 0.119-0.022 0.181 0 0.022-0.004 0.046-0.008 0.069l-0.003 0.016c-0.024 0.15-0.032 0.31-0.026 0.501 0 0.011 0 0.022-0.001 0.033-0.012 0.002-0.039 0.004-0.1 0.004z"></path>
<path d="M17.551 15.951c-0.021-0.026-0.041-0.052-0.060-0.079-0.037-0.054-0.086-0.127-0.128-0.203-0.068-0.122-0.148-0.239-0.218-0.342-0.075-0.11-0.164-0.18-0.27-0.215-0.057-0.019-0.119-0.031-0.195-0.038h-0.001v-0.009c-0-0.038-0.001-0.066 0.001-0.096 0.006-0.113-0.001-0.233-0.023-0.379-0.013-0.084-0.020-0.161-0.021-0.235-0.003-0.226 0.004-0.471 0.021-0.749 0.003-0.045 0.002-0.091 0.002-0.136-0-0.027-0-0.053-0-0.078 0-0.040 0.001-0.081 0.003-0.121 0 0 0.019-0.805 0.020-0.871 0.001-0.069 0.002-0.137 0.003-0.206 0.002-0.143 0.004-0.29 0.010-0.435 0.008-0.181 0.023-0.318 0.050-0.444 0.003-0.015 0.005-0.031 0.006-0.046 0.001-0.013 0.002-0.023 0.004-0.034 0.008-0.048 0.015-0.096 0.022-0.144 0.017-0.118 0.035-0.24 0.066-0.356 0.015-0.056 0.034-0.109 0.056-0.156 0.040-0.083 0.111-0.136 0.213-0.155 0.023-0.003 0.048-0.006 0.074-0.006 0.008 0 0.017 0 0.025 0.001 0.060 0.003 0.104 0.032 0.141 0.092 0.025 0.042 0.046 0.086 0.062 0.135 0.060 0.182 0.067 0.369 0.069 0.561 0 0.059 0.001 0.119 0.001 0.178 0 0.13 0.001 0.265 0.005 0.398 0.003 0.102 0.011 0.204 0.019 0.303 0.003 0.038 0.006 0.076 0.009 0.115 0.002 0.029 0.005 0.058 0.008 0.087 0.005 0.056 0.010 0.108 0.012 0.159 0.009 0.245 0.021 0.567 0.027 0.889 0.001 0.080 0 0.161-0 0.239v0.009c-0 0.063-0.001 0.128-0.001 0.192s-0.004 0.13-0.009 0.194c-0.003 0.042-0.006 0.084-0.008 0.126-0.002 0.060-0.003 0.12-0.004 0.179-0.001 0.044-0.001 0.088-0.003 0.132-0.002 0.054-0.004 0.109-0.006 0.163-0.003 0.069-0.006 0.14-0.007 0.211l-0.002 0.073c-0.004 0.16-0.008 0.325 0.002 0.489 0.002 0.026 0.002 0.053 0.003 0.079 0.001 0.022 0.001 0.042 0.002 0.062l0.022 0.465z"></path>
<path d="M15.39 17.467c-0.049 0-0.1-0.010-0.157-0.031-0.038-0.014-0.073-0.042-0.106-0.085-0.061-0.080-0.101-0.171-0.138-0.258-0.057-0.135-0.1-0.277-0.131-0.432-0.018-0.088-0.037-0.177-0.056-0.263-0.021-0.094-0.042-0.191-0.060-0.286-0.014-0.071-0.025-0.143-0.036-0.213-0.006-0.039-0.012-0.077-0.018-0.116-0.007-0.043-0.014-0.086-0.022-0.128-0.015-0.084-0.030-0.17-0.041-0.255-0.028-0.234-0.032-0.427-0.011-0.605 0.010-0.085 0.022-0.154 0.050-0.22 0.029-0.069 0.075-0.119 0.136-0.15 0.023-0.012 0.054-0.016 0.074-0.017 0.029-0.002 0.056-0.004 0.081-0.004 0.091 0 0.169 0.016 0.238 0.050 0.041 0.020 0.071 0.043 0.094 0.071 0.046 0.058 0.087 0.11 0.124 0.166 0.018 0.028 0.027 0.061 0.035 0.096-0.025-0.007-0.050-0.010-0.075-0.010-0.051 0-0.104 0.014-0.159 0.043-0.115 0.059-0.187 0.158-0.222 0.301-0.009 0.039-0.019 0.086-0.022 0.133-0.004 0.066 0.015 0.127 0.036 0.189 0.044 0.129 0.127 0.232 0.207 0.331 0.087 0.107 0.181 0.204 0.28 0.287 0.006 0.005 0.008 0.009 0.008 0.022l-0 0.012c-0.003 0.099-0.007 0.202-0.009 0.303-0.002 0.069-0.003 0.138-0.004 0.207l-0.001 0.093-0.359 0.080c-0.032 0.007-0.065 0.014-0.097 0.023-0.045 0.012-0.065 0.047-0.053 0.095 0.021 0.088 0.048 0.163 0.080 0.232 0.040 0.084 0.097 0.156 0.173 0.22 0.063 0.053 0.134 0.060 0.196 0.060l0.025-0c0.011-0 0.022-0.001 0.032-0.002 0.008-0.001 0.017-0.002 0.026-0.002 0.045-0.002 0.085-0.017 0.119-0.034l0.010 0.009c-0.021 0.014-0.042 0.025-0.063 0.036-0.010 0.005-0.020 0.010-0.029 0.015-0.049 0.025-0.1 0.038-0.155 0.038z"></path>
<path d="M16.55 15.071c-0.038-0.003-0.075-0.005-0.112-0.007-0.156-0.006-0.308-0.053-0.455-0.099l-0.025-0.008c-0.091-0.028-0.182-0.057-0.273-0.086l-0.105-0.033c-0.011-0.037-0.013-0.066-0.006-0.095 0.030-0.128 0.072-0.241 0.127-0.345 0.040-0.076 0.098-0.13 0.177-0.166 0.073-0.033 0.147-0.049 0.226-0.049 0.073 0 0.149 0.014 0.231 0.043 0.042 0.015 0.072 0.047 0.106 0.084l0.013 0.014c0.056 0.059 0.072 0.138 0.084 0.22 0.012 0.078 0.021 0.157 0.030 0.234l0.006 0.049c0.002 0.020 0.003 0.043 0.003 0.070-0.001 0.047-0.002 0.094-0.004 0.143l-0.001 0.031-0.021-0.002z"></path>
<path d="M15.942 17.393c-0.060 0-0.114-0.018-0.165-0.054-0.098-0.070-0.154-0.17-0.172-0.304-0.011-0.085-0.011-0.173-0.011-0.258 0-0.045 0-0.091-0.002-0.136-0.003-0.087 0.002-0.176 0.008-0.261 0.003-0.054 0.006-0.108 0.008-0.161 0-0.024 0-0.049 0-0.076l0.012 0.008c0.041 0.025 0.079 0.048 0.118 0.070 0.144 0.081 0.268 0.142 0.404 0.182 0.054 0.016 0.123 0.040 0.18 0.086 0.029 0.024 0.051 0.049 0.065 0.075 0 0 0.031 0.056 0.038 0.068 0.014 0.025 0.018 0.047 0.015 0.071-0.012 0.095-0.031 0.189-0.058 0.279-0.009 0.029-0.020 0.058-0.030 0.086-0.010 0.026-0.020 0.053-0.028 0.079-0.026 0.080-0.086 0.134-0.148 0.18-0.056 0.042-0.126 0.054-0.192 0.062-0.015 0.002-0.028 0.003-0.042 0.003zM15.684 16.972c-0 0.021-0.001 0.040 0.001 0.060l0.002 0.016c0.004 0.039 0.009 0.080 0.023 0.118 0.024 0.067 0.069 0.112 0.129 0.129 0.027 0.008 0.051 0.015 0.076 0.015l0.064 0c0.030 0 0.066-0.001 0.103-0.008 0.065-0.013 0.116-0.057 0.159-0.134 0.041-0.074 0.065-0.158 0.074-0.248 0.007-0.074 0.015-0.148 0.022-0.213 0.006-0.054-0.009-0.076-0.060-0.086-0.166-0.037-0.334-0.056-0.506-0.074-0.006-0.001-0.013-0.001-0.018-0.001-0.049 0-0.057 0.039-0.061 0.060-0.012 0.059-0.006 0.268-0.008 0.298l0.001 0.068z"></path>
<path d="M15.93 15.315c-0.027-0.009-0.048-0.015-0.067-0.022-0.077-0.028-0.148-0.068-0.225-0.115l-0.055-0.032c-0.050-0.030-0.101-0.059-0.149-0.091-0.050-0.032-0.098-0.066-0.148-0.102l-0.032-0.022c0.035-0.022 0.063-0.033 0.093-0.035 0.005-0 0.010-0 0.015-0 0.038 0 0.078 0.009 0.12 0.028 0.053 0.024 0.109 0.043 0.162 0.061l0.028 0.010c0.080 0.028 0.161 0.055 0.243 0.083l0.077 0.026-0.061 0.212z"></path>
<path d="M15.431 17.283c-0.079-0-0.139-0.032-0.178-0.092-0.057-0.089-0.115-0.185-0.151-0.289 0.020-0.006 0.038-0.011 0.057-0.015 0.093-0.019 0.187-0.037 0.28-0.055l0.044-0.009c-0 0.022-0 0.038 0.001 0.055 0.003 0.058 0.006 0.126 0.012 0.193 0.004 0.054 0.021 0.108 0.054 0.168l0.015 0.028c-0.016 0.007-0.035 0.011-0.056 0.012-0.019 0.002-0.039 0.002-0.066 0.002h-0.012z"></path>
<path d="M15.963 17.199c-0.034 0-0.065-0.005-0.094-0.014-0.039-0.012-0.063-0.044-0.068-0.091-0.005-0.043-0.005-0.086-0.006-0.129l-0-0.040c-0.001-0.044-0.001-0.089-0.001-0.133v-0.126c0.112 0.009 0.349 0.045 0.429 0.066-0.002 0.021-0.005 0.043-0.008 0.065l-0.008 0.061c-0.005 0.039-0.010 0.073-0.014 0.107-0.006 0.053-0.023 0.104-0.050 0.15s-0.066 0.073-0.124 0.080c-0.019 0.003-0.038 0.004-0.056 0.004z"></path>
</symbol>
<symbol id="icon-postcard" viewBox="0 0 14 32">
<path d="M1.679 20.4c-0.020-0.025-0.030-0.057-0.021-0.093 0.001-0.002 0.002-0.004 0.002-0.006-0.008-0.077-0.005-0.154 0.016-0.232 0.029-0.113 0.087-0.223 0.132-0.33 0.118-0.281 0.233-0.564 0.352-0.844 0.201-0.477 0.414-0.947 0.631-1.417 0.135-0.291 0.265-0.588 0.413-0.874-0.097 0.002-0.192 0.004-0.289 0.005-0.377 0.341-0.789 0.717-1.11 1.003-0.28 0.248-0.564 0.504-0.734 0.837-0.115 0.226-0.17 0.476-0.218 0.725-0.092 0.494-0.152 0.994-0.183 1.495 0.131 0 0.264 0 0.395 0 0.052 0 0.089 0.035 0.106 0.081 0.025 0.068 0.046 0.139 0.065 0.209 0.034 0.125 0.060 0.253 0.073 0.382 0.012 0.125 0.009 0.259-0.049 0.373-0.077 0.148-0.264 0.184-0.415 0.201-0.067 0.007-0.147 0.007-0.217-0.013 0.075 0.24 0.397 0.368 0.668 0.315 0.487-0.095 0.408-0.212 0.829-1.152 0.012-0.025 0.022-0.054 0.034-0.083-0.101-0.056-0.193-0.125-0.27-0.206-0.1-0.107-0.175-0.236-0.211-0.375z"></path>
<path d="M0.943 16.354c0.739 0.035 1.474 0.045 2.213 0.021 0.071-0.002 0.143-0.002 0.214-0.004 0.007-0.001 0.014-0.002 0.021-0.001 0.002 0 0.003-0.001 0.004-0.001 0.019 0 0.038 0 0.057 0.001 1.114-0.027 2.229-0.007 3.342 0.029 0.1-0.232 0.198-0.465 0.296-0.698 0.318-0.75 0.666-1.49 1.057-2.206 0.156-0.286 0.297-0.577 0.591-0.744 0.295-0.167 0.655-0.184 0.976-0.083 0.304 0.096 0.586 0.29 0.758 0.561 0.2 0.315 0.134 0.638 0.065 0.983-0.136 0.687-0.322 1.369-0.516 2.044 0.116 0.037 0.243 0.044 0.363 0.055 0.218 0.020 0.435 0.033 0.653 0.042 0.739 0.035 1.475 0.045 2.213 0.021 0.104-0.003 0.209-0.004 0.313-0.006 0.008-0.009 0.017-0.019 0.026-0.027 0.425-0.376 0.651-0.881 0.767-1.421v-3.255c-0.043-0.393-0.092-0.785-0.138-1.176-0.127-1.091-0.155-2.167-0.037-3.262 0.042-0.391 0.105-0.777 0.174-1.163v-6.063h-10.040c-0.611 0.044-1.22 0.098-1.831 0.143-0.019 0.009-0.038 0.017-0.059 0.023-0.671 0.185-1.404 0.040-2.045 0.233-0.205 0.372-0.321 0.798-0.383 1.23v14.648c0.095 0.020 0.194 0.026 0.289 0.036 0.218 0.020 0.436 0.032 0.654 0.042zM9.84 8.456c0.003 0.001 0.029 0.008 0.033 0.008 0.017 0.006 0.035 0.013 0.050 0.020 0.001 0 0.028 0.015 0.032 0.016 0.015 0.008 0.028 0.018 0.042 0.027 0.076 0.053 0.141 0.104 0.191 0.171 0.024 0.031 0.041 0.064 0.056 0.102 0.003 0.007 0.004 0.011 0.005 0.011 0 0.002 0.001 0.006 0.003 0.014 0.004 0.019 0.008 0.038 0.013 0.057 0.014 0.062 0.027 0.126 0.046 0.186-0.001 0.042-0.003 0.083-0.007 0.124-0.017 0.132-0.051 0.255-0.101 0.372 0.057-0.013 0.113-0.019 0.17-0.020 0.025 0.017 0.054 0.029 0.084 0.037 0.111 0.026 0.23 0.105 0.324 0.179 0.057 0.044 0.126 0.106 0.174 0.164 0.039 0.126 0.023 0.265-0.029 0.389-0.021 0.028-0.043 0.056-0.067 0.082-0.030 0.035-0.050 0.053-0.095 0.092-0.043 0.039-0.088 0.075-0.135 0.11-0.042 0.031-0.085 0.062-0.129 0.091-0.019 0.013-0.039 0.025-0.059 0.038-0.009 0.006-0.045 0.027-0.050 0.031-0.236 0.138-0.491 0.209-0.754 0.28-0.183 0.049-0.361 0.117-0.55 0.144-0.186 0.027-0.368 0-0.546 0.068-0.003 0.001-0.006 0.003-0.009 0.004-0.021 0-0.041 0.001-0.062 0-0.070 0.053-0.201 0.012-0.187-0.101 0.036-0.291 0.1-0.578 0.19-0.856 0.026-0.055 0.053-0.108 0.079-0.162 0.1-0.206 0.176-0.419 0.269-0.627 0.107-0.238 0.292-0.429 0.449-0.634 0.024-0.031 0.035-0.064 0.038-0.096 0.014-0.017 0.027-0.031 0.042-0.048 0.026-0.013 0.051-0.031 0.072-0.061 0.015-0.021 0.032-0.040 0.047-0.060 0.039-0.034 0.080-0.065 0.123-0.090 0.078-0.045 0.162-0.065 0.244-0.064 0.002 0.001 0.003 0.001 0.004 0.001zM4.4 3.454c0.034-0.062 0.056-0.135 0.054-0.224-0.001-0.062 0.003-0.124 0.006-0.186 0.027-0.123 0.061-0.243 0.109-0.356 0.086-0.203 0.221-0.362 0.384-0.478 0.003-0.001 0.005-0.003 0.008-0.005 0.008-0.002 0.069-0.027 0.076-0.029 0.042-0.014 0.085-0.025 0.128-0.035 0.003-0.001 0.077-0.013 0.085-0.015 0.040-0.004 0.081-0.006 0.122-0.007 0.225-0.006 0.426 0 0.623 0.057 0.094 0.027 0.172 0.065 0.256 0.117 0.017 0.010 0.023 0.014 0.027 0.016 0.004 0.004 0.012 0.010 0.025 0.022 0.037 0.030 0.073 0.062 0.107 0.094 0.117 0.103 0.235 0.206 0.36 0.296 0.059 0.082 0.115 0.166 0.164 0.252 0.16 0.281 0.27 0.573 0.343 0.873 0.091-0.106 0.193-0.202 0.303-0.286 0.072-0.004 0.146-0.021 0.216-0.050 0.255-0.11 0.602-0.127 0.891-0.121 0.176 0.004 0.399 0.025 0.578 0.066 0.259 0.191 0.43 0.482 0.507 0.801-0.001 0.086-0.004 0.171-0.012 0.257-0.011 0.111-0.023 0.178-0.051 0.317-0.028 0.138-0.064 0.274-0.103 0.41-0.036 0.123-0.076 0.245-0.119 0.365-0.019 0.054-0.039 0.107-0.059 0.16-0.009 0.025-0.047 0.119-0.054 0.134-0.262 0.611-0.655 1.121-1.064 1.64-0.285 0.362-0.537 0.752-0.864 1.079-0.323 0.322-0.718 0.531-0.968 0.926-0.004 0.007-0.007 0.015-0.012 0.022-0.041 0.029-0.079 0.062-0.12 0.090-0.060 0.205-0.375 0.314-0.511 0.075-0.352-0.62-0.643-1.273-0.871-1.947-0.028-0.144-0.055-0.288-0.081-0.43-0.103-0.546-0.266-1.073-0.385-1.615-0.136-0.621-0.050-1.259-0.046-1.888 0.001-0.097-0.025-0.176-0.065-0.241 0-0.053 0.004-0.104 0.009-0.155z"></path>
<path d="M3.942 19.732c-0.086-0.123-0.142-0.267-0.142-0.418 0-0.116 0.037-0.217 0.080-0.321 0.11-0.265 0.221-0.529 0.331-0.794 0.224-0.538 0.453-1.069 0.704-1.59-0.421-0.005-0.843-0.010-1.264-0.016-0.064 0.001-0.128 0.003-0.192 0.004-0.193 0.352-0.353 0.725-0.52 1.088-0.189 0.412-0.374 0.824-0.551 1.241 0.165 0.044 0.33 0.089 0.495 0.133 0.058 0.016 0.092 0.079 0.077 0.136-0.021 0.076-0.044 0.15-0.069 0.225-0.091 0.277-0.191 0.576-0.36 0.816-0.088 0.126-0.183 0.201-0.336 0.229-0.078 0.015-0.163 0.023-0.247 0.019 0.103 0.181 0.305 0.315 0.493 0.375 0.161 0.050 0.337 0.063 0.494-0.007 0.156-0.069 0.276-0.203 0.385-0.33 0.218-0.256 0.416-0.526 0.624-0.79z"></path>
<path d="M5.163 16.584c-0.121 0.242-0.239 0.486-0.348 0.733-0.148 0.333-0.281 0.672-0.42 1.008 0.151 0.046 0.304 0.092 0.455 0.14 0.063 0.019 0.086 0.076 0.077 0.136-0.008 0.060-0.021 0.12-0.035 0.18-0.054 0.239-0.13 0.496-0.28 0.694-0.077 0.103-0.176 0.195-0.304 0.227-0.033 0.007-0.064 0.011-0.096 0.012 0.067 0.068 0.149 0.126 0.239 0.17 0.589-0.578 1.126-1.202 1.562-1.916 0.266-0.435 0.483-0.888 0.686-1.35-0.513-0.018-1.025-0.028-1.536-0.034z"></path>
<path d="M10.838 16.565c-0.281-0.016-0.607-0.006-0.877-0.096-0.054 0.185-0.107 0.37-0.161 0.555-0.133 0.461-0.294 0.914-0.473 1.359-0.082 0.205-0.167 0.409-0.253 0.611-0.103 0.245-0.283 0.469-0.429 0.691-0.662 1.006-1.253 2.055-1.83 3.112-0.068 0.125-0.259 0.014-0.19-0.111 0.016-0.029 0.033-0.059 0.048-0.088 0.273-0.498 0.55-0.994 0.833-1.485 0.396-0.689 0.831-1.348 1.259-2.017 0.127-0.198 0.207-0.423 0.295-0.641 0.083-0.203 0.163-0.407 0.239-0.612 0.165-0.452 0.296-0.911 0.424-1.374 0.123-0.448 0.252-0.893 0.371-1.341 0.117-0.441 0.241-0.893 0.295-1.347 0.078-0.643-0.761-1.062-1.305-0.932-0.166 0.040-0.335 0.128-0.449 0.258-0.090 0.104-0.155 0.242-0.222 0.361-0.184 0.327-0.353 0.661-0.517 0.997-0.35 0.717-0.644 1.453-0.962 2.184-0.315 0.727-0.693 1.426-1.159 2.067-0.891 1.22-2.079 2.167-3.237 3.119-0.026 0.022-0.056 0.028-0.083 0.026-0.852 0.846-1.275 1.516-1.411 2.487-0.277 1.977-0.301 2.238-0.318 7.65l5.947-0.921c-0.103-4.989 0.087-3.798 1.622-5.043 0.515-0.418 3.553-2.387 3.894-2.957 0.483-0.809 0.478-0.951 0.455-1.892l-0.394-4.575c-0.043 0-0.087 0-0.13-0.001-0.428-0.009-0.854-0.022-1.281-0.046zM6.957 18.263c0.027-0.050 0.103-0.071 0.151-0.040 0.071 0.046 0.146 0.087 0.223 0.124 0.016 0.007 0.030 0.014 0.046 0.021 0.001 0.001 0.003 0.001 0.004 0.002 0.008 0.003 0.018 0.007 0.026 0.010 0.033 0.013 0.065 0.023 0.099 0.032 0.015 0.004 0.029 0.007 0.045 0.009 0.001 0 0.001 0 0.002 0 0.008 0 0.016 0.001 0.024 0.002 0.006 0 0.029-0.003 0.037-0.002 0.006-0.001 0.013-0.003 0.020-0.005 0.059-0.020 0.119 0.023 0.136 0.077 0.019 0.059-0.022 0.117-0.077 0.135-0.148 0.050-0.321-0.021-0.455-0.082-0.083-0.038-0.165-0.082-0.242-0.132-0.053-0.035-0.069-0.096-0.040-0.151zM9.64 13.138l0.151 0.051c0.059 0.020 0.11 0.055 0.168 0.094 0.129 0.086 0.201 0.224 0.207 0.397 0.003 0.1-0.017 0.197-0.036 0.291l-0.007 0.037c-0.009 0.047-0.025 0.092-0.042 0.14l-0.051 0.158c-0.028 0.067-0.172 0.553-0.245 0.681-0.025 0.045-0.074 0.128-0.188 0.090-0.012-0.004-0.025-0.009-0.041-0.016-0.392-0.173-0.775-0.347-1.138-0.561-0.111-0.065-0.13-0.126-0.076-0.246 0.066-0.145 0.142-0.31 0.213-0.475 0.088-0.203 0.21-0.375 0.363-0.515 0.159-0.145 0.314-0.206 0.475-0.186 0.089 0.011 0.175 0.036 0.247 0.060zM6.766 18.794c0.023 0.023 0.049 0.044 0.075 0.065 0.003 0.002 0.005 0.004 0.008 0.006 0 0 0.013 0.009 0.016 0.012 0.016 0.012 0.033 0.023 0.048 0.035 0.037 0.025 0.074 0.048 0.112 0.069 0.184 0.103 0.398 0.165 0.616 0.122 0.059-0.012 0.119 0.016 0.136 0.077 0.015 0.055-0.019 0.124-0.077 0.135-0.39 0.077-0.811-0.090-1.090-0.365-0.102-0.1 0.055-0.256 0.156-0.155z"></path>
<path d="M8.825 13.745c-0.040 0.085-0.081 0.169-0.128 0.266l-0.074 0.151c-0.026 0.054-0.051 0.107-0.076 0.161 0.193 0.123 0.791 0.424 1.080 0.544l0.107-0.327c0.038-0.115 0.075-0.23 0.11-0.346l0.033-0.104c0.036-0.111 0.071-0.227 0.096-0.341 0.026-0.126-0.009-0.228-0.102-0.294-0.070-0.050-0.147-0.088-0.236-0.118-0.047-0.016-0.099-0.028-0.152-0.039-0.159-0.029-0.285 0.002-0.396 0.101-0.113 0.097-0.201 0.213-0.262 0.346z"></path>
<path d="M1.918 20.26c0.052 0.006 0.105 0.005 0.157 0.001 0.027-0.002 0.055-0.007 0.082-0.013 0.020-0.004 0.040-0.011 0.061-0.015-0.001 0 0.007-0.002 0.013-0.004 0.006-0.003 0.018-0.009 0.021-0.012s0.005-0.003 0.008-0.005c0 0 0 0 0.001-0.001 0.017-0.015 0.033-0.032 0.048-0.048 0.019-0.021 0.022-0.027 0.043-0.058 0.018-0.026 0.034-0.053 0.049-0.080 0.067-0.118 0.122-0.243 0.171-0.369 0.053-0.136 0.099-0.274 0.142-0.414-0.169-0.045-0.338-0.091-0.507-0.137-0.003-0.001-0.004-0.002-0.007-0.003l-0.397 1.129c0.035 0.014 0.077 0.023 0.115 0.027z"></path>
<path d="M0.668 21.678c-0.001 0-0.003-0.001-0.003 0 0 0 0.003 0.001 0.007 0.002 0 0 0 0-0.001 0s-0.002-0.001-0.003-0.002z"></path>
<path d="M0.675 21.681c-0.001 0-0.002 0-0.003-0.001 0.013 0.007 0.008 0.004 0.003 0.001z"></path>
<path d="M0.668 21.677c0.002 0 0.004 0.001 0.006 0.002 0.015 0.004 0.041 0.012 0.043 0.013 0.006 0.001 0.030 0.003 0.002 0.001 0.006 0 0.012 0.001 0.018 0.002 0.017 0.001 0.034 0.002 0.050 0.001 0.045-0.001 0.071-0.005 0.116-0.015 0.024-0.005 0.048-0.012 0.073-0.019 0.015-0.004 0.029-0.009 0.044-0.015 0.003-0.001 0.012-0.005 0.016-0.006 0.004-0.002 0.007-0.004 0.012-0.006 0.002-0.002 0.004-0.004 0.006-0.005 0.004-0.004 0.005-0.004 0.006-0.005s0-0.002 0.002-0.005c0.004-0.007 0.008-0.016 0.014-0.024 0.001-0.004 0.003-0.008 0.004-0.014 0.003-0.012 0.006-0.023 0.009-0.035 0.001-0.004 0.003-0.021 0.005-0.027 0-0.007 0.002-0.024 0.002-0.029 0.001-0.025 0.002-0.049 0.001-0.075-0.001-0.032-0.003-0.062-0.006-0.092-0.001-0.006-0.001-0.014-0.002-0.020 0-0.001-0.001-0.007-0.001-0.011-0.001-0.004-0.004-0.028-0.005-0.035-0.021-0.126-0.055-0.25-0.094-0.372-0.107 0-0.214 0-0.322 0-0.002 0-0.003-0.001-0.005-0.001l-0.038 0.776c0.010 0.002 0.027 0.006 0.043 0.016z"></path>
<path d="M0.672 21.68c0.001 0.001 0.002 0.001 0.003 0.001-0.002-0.001-0.004-0.002-0.006-0.002 0.001 0 0.002 0 0.003 0.001z"></path>
<path d="M4.218 18.502l-0.244 0.9c0.009 0.002 0.019 0.004 0.027 0.010 0.018 0.013 0.037 0.024 0.057 0.036 0.006 0.003 0.035 0.018 0.040 0.021 0.026 0.011 0.055 0.018 0.083 0.023 0.006 0 0.019 0.001 0.024 0.001 0.009 0 0.042-0.005 0.033-0.002 0.009-0.002 0.018-0.003 0.027-0.006 0.007-0.002 0.015-0.005 0.021-0.007 0.020-0.012 0.039-0.022 0.058-0.036 0.005-0.004 0.016-0.014 0.020-0.016 0.009-0.009 0.019-0.018 0.028-0.028s0.018-0.020 0.027-0.031c0.004-0.005 0.006-0.007 0.007-0.008s0.002-0.003 0.006-0.009c0.017-0.024 0.033-0.048 0.047-0.073s0.029-0.052 0.043-0.079c0.006-0.014 0.014-0.027 0.020-0.041 0.002-0.005 0.009-0.022 0.013-0.028 0.002-0.005 0.008-0.020 0.008-0.022 0.002-0.005 0.004-0.012 0.006-0.017 0.005-0.015 0.011-0.028 0.016-0.043 0.009-0.025 0.018-0.051 0.026-0.077 0.034-0.105 0.060-0.213 0.081-0.321-0.16-0.049-0.318-0.098-0.476-0.146z"></path>
</symbol>
<symbol id="icon-Frame-3" viewBox="0 0 32 32">
<path d="M16 32c8.837 0 16-7.163 16-16s-7.163-16-16-16c-8.837 0-16 7.163-16 16s7.163 16 16 16z"></path>
<path d="M16.619 3.77l1.139-1.365-0.998-0.086 0.019-0.239 1.342 0.115-0.018 0.209-1.139 1.365 1.032 0.088-0.021 0.239-1.376-0.117 0.019-0.209z"></path>
<path d="M19.081 2.359l1.202 0.3-0.058 0.233-0.931-0.232-0.139 0.558 0.809 0.202-0.058 0.233-0.809-0.202-0.147 0.594 0.931 0.232-0.058 0.233-1.202-0.3 0.459-1.851z"></path>
<path d="M21.239 2.985l0.453 0.194c0.45 0.193 0.646 0.498 0.498 0.845-0.12 0.283-0.377 0.386-0.645 0.342l0.246 0.929-0.323-0.138-0.209-0.861-0.233-0.099-0.279 0.653-0.257-0.114 0.748-1.752zM21.118 3.98l0.199 0.086c0.329 0.141 0.514 0.062 0.598-0.138 0.083-0.196 0.014-0.388-0.315-0.528l-0.199-0.085-0.283 0.664z"></path>
<path d="M22.628 4.678c0.329-0.523 0.739-0.716 1.173-0.442 0.432 0.273 0.43 0.711 0.106 1.226-0.329 0.523-0.737 0.714-1.171 0.44-0.432-0.272-0.431-0.711-0.109-1.223zM23.655 5.316c0.171-0.272 0.364-0.653 0.010-0.878-0.354-0.223-0.615 0.115-0.786 0.386-0.169 0.269-0.362 0.651-0.009 0.874s0.616-0.115 0.785-0.383z"></path>
<path d="M26.747 6.754l0.356 0.43c0.301 0.365 0.356 0.732 0.041 0.993s-0.663 0.143-0.967-0.225l-0.176-0.214-0.54 0.449-0.178-0.216 1.465-1.217zM26.185 7.585l0.178 0.216c0.228 0.277 0.428 0.29 0.594 0.152 0.164-0.136 0.189-0.338-0.039-0.614l-0.178-0.216-0.556 0.461z"></path>
<path d="M28.113 8.533l0.142 0.242-1.432 0.849 0.497 0.842-0.206 0.122-0.639-1.083 1.639-0.971z"></path>
<path d="M29.347 10.93l0.111 0.284-1.526 1.324-0.111-0.284 0.365-0.307-0.271-0.692-0.476 0.024-0.109-0.277 2.017-0.072zM28.154 11.233l0.219 0.56 0.232-0.196 0.526-0.425-0.674 0.047-0.303 0.013z"></path>
<path d="M28.577 12.816l0.058 0.268c-0.211 0.060-0.299 0.228-0.24 0.502 0.054 0.251 0.189 0.395 0.377 0.354 0.145-0.031 0.19-0.141 0.213-0.324l0.054-0.431c0.030-0.242 0.131-0.461 0.401-0.521 0.33-0.072 0.568 0.178 0.648 0.544 0.082 0.377-0.042 0.678-0.424 0.764l-0.058-0.264c0.262-0.071 0.283-0.269 0.244-0.454-0.053-0.241-0.189-0.347-0.341-0.313-0.125 0.028-0.186 0.13-0.205 0.293l-0.056 0.431c-0.040 0.324-0.139 0.49-0.393 0.546-0.38 0.083-0.611-0.188-0.696-0.575-0.091-0.423 0.044-0.739 0.417-0.821z"></path>
<path d="M30.109 15.317l-0.036-0.641 0.239-0.013 0.088 1.57-0.239 0.013-0.036-0.649-1.662 0.093-0.016-0.28 1.661-0.093z"></path>
<path d="M28.712 16.917l-0.047 0.465 1.418 0.143 0.047-0.464 0.239 0.024-0.122 1.204-0.239-0.024 0.046-0.461-1.418-0.142-0.046 0.461-0.239-0.024 0.121-1.204 0.24 0.023z"></path>
<path d="M29.172 18.924c0.623 0.165 0.891 0.528 0.76 1.024-0.084 0.316-0.317 0.629-0.814 0.514l0.070-0.262c0.277 0.046 0.447-0.077 0.511-0.322 0.11-0.416-0.241-0.579-0.601-0.674-0.339-0.091-0.728-0.123-0.839 0.291-0.074 0.278 0.017 0.438 0.282 0.53l-0.070 0.264c-0.469-0.143-0.537-0.52-0.446-0.861 0.135-0.512 0.549-0.664 1.147-0.505z"></path>
<path d="M27.337 22.648l-0.15 0.23c-0.192-0.109-0.373-0.053-0.526 0.181-0.14 0.215-0.147 0.412 0.013 0.518 0.124 0.081 0.235 0.036 0.38-0.075l0.345-0.263c0.193-0.149 0.42-0.231 0.652-0.079 0.282 0.185 0.273 0.529 0.068 0.844-0.211 0.323-0.511 0.444-0.842 0.233l0.147-0.227c0.234 0.136 0.39 0.013 0.494-0.146 0.135-0.207 0.113-0.378-0.017-0.464-0.107-0.070-0.223-0.041-0.353 0.059l-0.345 0.263c-0.258 0.198-0.446 0.245-0.664 0.103-0.326-0.213-0.296-0.569-0.080-0.9 0.238-0.36 0.557-0.486 0.877-0.278z"></path>
<path d="M27.123 25.314l-0.188 0.208-0.603-0.547-0.431 0.476 0.603 0.547-0.188 0.208-1.412-1.28 0.188-0.208 0.633 0.575 0.43-0.476-0.633-0.575 0.188-0.208 1.412 1.28z"></path>
<path d="M25.071 26.076c0.387 0.482 0.436 0.932 0.036 1.255-0.397 0.32-0.811 0.176-1.191-0.298-0.387-0.482-0.434-0.93-0.034-1.251 0.397-0.32 0.81-0.176 1.189 0.295zM24.135 26.843c0.201 0.25 0.499 0.557 0.825 0.295 0.327-0.262 0.092-0.62-0.11-0.871-0.199-0.248-0.497-0.554-0.822-0.292s-0.092 0.62 0.107 0.868z"></path>
<path d="M23.758 28.265l-0.484 0.277c-0.41 0.234-0.781 0.225-0.984-0.13s-0.025-0.679 0.388-0.916l0.24-0.138-0.347-0.611 0.244-0.139 0.943 1.657zM23.038 27.567l-0.244 0.139c-0.311 0.177-0.359 0.372-0.252 0.56 0.105 0.185 0.299 0.245 0.61 0.068l0.244-0.139-0.358-0.628z"></path>
<path d="M18.666 28.233c0.672-0.135 1.048 0.261 1.151 0.775s-0.089 1.025-0.762 1.162c-0.672 0.135-1.048-0.261-1.151-0.774s0.090-1.028 0.762-1.163z"></path>
<path d="M15.471 28.715l-1.18 1.33 0.996 0.116-0.028 0.238-1.338-0.156 0.024-0.208 1.18-1.33-1.030-0.12 0.028-0.238 1.372 0.16-0.024 0.208z"></path>
<path d="M12.965 30.048l-1.192-0.337 0.065-0.231 0.922 0.261 0.156-0.553-0.803-0.227 0.065-0.231 0.803 0.227 0.166-0.589-0.922-0.261 0.065-0.231 1.193 0.337-0.517 1.835z"></path>
<path d="M10.83 29.358l-0.447-0.208c-0.444-0.206-0.631-0.517-0.471-0.861 0.129-0.279 0.389-0.374 0.656-0.321l-0.217-0.936 0.318 0.148 0.182 0.867 0.229 0.106 0.299-0.644 0.254 0.118-0.803 1.729zM10.981 28.365l-0.195-0.091c-0.324-0.151-0.511-0.077-0.602 0.118-0.089 0.193-0.027 0.386 0.298 0.537l0.195 0.091 0.304-0.656z"></path>
<path d="M9.493 27.621c-0.346 0.513-0.761 0.693-1.186 0.406-0.423-0.286-0.408-0.725-0.068-1.229 0.346-0.513 0.758-0.691 1.184-0.404 0.422 0.286 0.408 0.725 0.070 1.227zM8.485 26.951c-0.18 0.267-0.383 0.643-0.037 0.877 0.347 0.234 0.619-0.095 0.798-0.362 0.177-0.263 0.382-0.639 0.035-0.874-0.346-0.233-0.619 0.097-0.796 0.36z"></path>
<path d="M5.44 25.42l-0.342-0.441c-0.291-0.373-0.333-0.743-0.011-0.994s0.667-0.122 0.96 0.255l0.17 0.219 0.555-0.432 0.172 0.221-1.504 1.173zM6.027 24.607l-0.172-0.221c-0.219-0.283-0.42-0.303-0.59-0.17-0.168 0.13-0.2 0.332 0.019 0.615l0.172 0.221 0.57-0.444z"></path>
<path d="M4.128 23.597l-0.135-0.246 1.459-0.803-0.47-0.856 0.21-0.116 0.605 1.103-1.669 0.919z"></path>
<path d="M2.97 21.167l-0.102-0.286 1.567-1.276 0.102 0.286-0.375 0.296 0.251 0.7 0.477-0.010 0.1 0.28-2.021 0.010zM4.173 20.901l-0.203-0.566-0.238 0.19-0.539 0.408 0.675-0.027 0.304-0.005z"></path>
<path d="M3.798 19.305l-0.049-0.269c0.213-0.053 0.306-0.219 0.256-0.494-0.047-0.252-0.177-0.401-0.367-0.365-0.146 0.027-0.194 0.135-0.223 0.316l-0.069 0.429c-0.037 0.24-0.146 0.456-0.417 0.507-0.332 0.062-0.562-0.194-0.629-0.564-0.070-0.379 0.064-0.675 0.447-0.75l0.049 0.266c-0.263 0.063-0.292 0.261-0.257 0.447 0.045 0.243 0.178 0.351 0.332 0.324 0.127-0.023 0.189-0.124 0.215-0.287l0.069-0.429c0.051-0.322 0.153-0.485 0.409-0.534 0.382-0.071 0.605 0.208 0.678 0.597 0.077 0.424-0.069 0.737-0.442 0.807z"></path>
<path d="M2.343 16.758l0.017 0.642-0.24 0.006-0.040-1.572 0.24-0.006 0.017 0.649 1.664-0.042 0.007 0.28-1.665 0.043z"></path>
<path d="M3.788 15.201l0.060-0.463-1.412-0.186-0.060 0.463-0.238-0.031 0.158-1.2 0.238 0.031-0.060 0.459 1.412 0.186 0.060-0.459 0.238 0.031-0.158 1.201-0.238-0.031z"></path>
<path d="M3.391 13.18c-0.617-0.185-0.874-0.554-0.727-1.047 0.094-0.314 0.336-0.619 0.83-0.489l-0.077 0.26c-0.276-0.054-0.449 0.063-0.521 0.307-0.123 0.412 0.223 0.586 0.579 0.692 0.336 0.1 0.725 0.146 0.848-0.264 0.082-0.275-0.002-0.438-0.265-0.539l0.078-0.262c0.464 0.157 0.52 0.537 0.42 0.874-0.153 0.506-0.572 0.645-1.164 0.469z"></path>
<path d="M5.338 9.516l0.157-0.225c0.188 0.115 0.37 0.065 0.53-0.165 0.147-0.211 0.16-0.407 0.002-0.518-0.122-0.085-0.233-0.043-0.382 0.063l-0.353 0.252c-0.198 0.143-0.427 0.217-0.654 0.058-0.277-0.193-0.256-0.537-0.041-0.845 0.221-0.316 0.526-0.429 0.849-0.208l-0.154 0.222c-0.229-0.144-0.391-0.025-0.498 0.13-0.141 0.203-0.125 0.374 0.002 0.464 0.105 0.074 0.222 0.048 0.356-0.048l0.353-0.252c0.264-0.191 0.453-0.232 0.667-0.082 0.318 0.222 0.277 0.577 0.052 0.902-0.25 0.355-0.574 0.471-0.886 0.252z"></path>
<path d="M5.634 6.858l0.194-0.202 0.586 0.565 0.445-0.463-0.586-0.565 0.194-0.202 1.371 1.324-0.194 0.202-0.615-0.593-0.445 0.463 0.615 0.593-0.194 0.202-1.371-1.324z"></path>
<path d="M7.708 6.157c-0.373-0.494-0.408-0.946 0.002-1.255 0.408-0.308 0.816-0.151 1.183 0.335 0.373 0.494 0.405 0.943-0.004 1.252-0.408 0.307-0.817 0.151-1.182-0.332zM8.668 5.419c-0.193-0.256-0.481-0.572-0.816-0.32-0.334 0.252-0.111 0.617 0.083 0.873 0.191 0.254 0.48 0.57 0.814 0.316 0.334-0.25 0.11-0.615-0.081-0.87z"></path>
<path d="M9.089 4.011l0.492-0.262c0.417-0.222 0.789-0.2 0.979 0.161 0.192 0.361 0.005 0.679-0.416 0.902l-0.245 0.13 0.329 0.622-0.247 0.132-0.892-1.685zM9.787 4.731l0.247-0.132c0.316-0.168 0.37-0.361 0.269-0.553-0.1-0.188-0.292-0.255-0.608-0.087l-0.247 0.132 0.339 0.64z"></path>
<path d="M14.176 4.2c-0.675 0.116-1.039-0.292-1.127-0.809s0.121-1.022 0.796-1.138c0.675-0.116 1.039 0.292 1.127 0.809s-0.121 1.023-0.796 1.138z"></path>
<path d="M13.087 17.091c-0.015-0.053-0.038-0.104-0.067-0.152-0.029-0.055-0.042-0.116-0.038-0.178 0-0.044 0.019-0.074-0.024-0.101-0.026-0.013-0.053-0.023-0.081-0.029l-0.438-0.137c0.055 0.198 0.165 0.377 0.317 0.515 0.094 0.153 0.201 0.297 0.32 0.432-0.019-0.041-0.029-0.086-0.031-0.132-0.002-0.071 0.052-0.145 0.041-0.219z"></path>
<path d="M12.421 16.349c0.172 0.053 0.345 0.105 0.516 0.16 0.060 0.013 0.115 0.046 0.155 0.093 0.045 0.064 0.019 0.118 0.022 0.194 0 0.118 0.106 0.198 0.107 0.314 0 0.071-0.045 0.132-0.042 0.201 0.010 0.064 0.036 0.124 0.075 0.175 0.152 0.207 0.366 0.36 0.611 0.435 0.294 0.093 0.601 0.14 0.91 0.141 0.062 0.005 0.124-0.005 0.18-0.030s0.106-0.063 0.144-0.112c0.056-0.076 0.099-0.161 0.127-0.251-0.154-0.089-0.285-0.212-0.384-0.36-0.136-0.188-0.262-0.382-0.393-0.574-0.054-0.101-0.122-0.193-0.201-0.275-0.089-0.055-0.188-0.093-0.291-0.111-0.101-0.025-0.203-0.042-0.306-0.052-0.086-0.008-0.173 0-0.258-0.021-0.065-0.009-0.125-0.042-0.168-0.092s-0.067-0.114-0.067-0.18c0-0.129 0.074-0.248 0.078-0.376 0-0.078-0.049-0.097-0.092-0.154-0.055-0.075-0.014-0.153-0.013-0.235-0.010-0.105-0.026-0.209-0.048-0.312-0.011-0.087-0.014-0.176-0.016-0.265 0-0.353 0.040-0.733-0.166-1.041-0.048-0.073 0.071-0.141 0.118-0.068 0.225 0.335 0.177 0.749 0.185 1.132 0.001 0.097 0.009 0.194 0.024 0.289 0.020 0.087 0.034 0.176 0.040 0.265 0 0.051-0.032 0.128 0 0.168s0.049 0.043 0.068 0.073c0.028 0.045 0.042 0.098 0.039 0.151 0 0.125-0.069 0.235-0.076 0.362-0.011 0.18 0.207 0.159 0.335 0.169 0.202 0.014 0.4 0.058 0.588 0.131 0.193 0.076 0.286 0.273 0.397 0.435s0.228 0.342 0.353 0.508c0.095 0.149 0.229 0.268 0.388 0.345 0.013 0.008 0.023 0.019 0.029 0.033s0.007 0.029 0.003 0.044c-0.075 0.254-0.226 0.52-0.524 0.543-0.166 0.005-0.332-0.005-0.496-0.032-0.153-0.016-0.305-0.045-0.453-0.087-0.051-0.015-0.101-0.033-0.151-0.052 0.222 0.14 0.459 0.255 0.706 0.343 0.877 0.316 1.977 0.165 2.767-0.321 0.675-0.422 1.2-1.046 1.499-1.783h-0.015l-0.093-0.012c-0.029-0.002-0.056-0.011-0.080-0.027s-0.043-0.038-0.056-0.064c-0.046-0.061-0.079-0.131-0.096-0.205s-0.017-0.152-0.002-0.226c0.078-0.244 0.34-0.341 0.551-0.446 0.013-0.007 0.028-0.009 0.042-0.007 0.039-0.374 0.012-0.752-0.079-1.116-0.012-0.268-0.113-0.525-0.287-0.729 0-0.009-0.008-0.018-0.013-0.026-0.044-0.076-0.091-0.147-0.14-0.218-0.064-0.090-0.134-0.177-0.209-0.258-0.513-0.526-1.201-0.847-1.934-0.902 0 0.008 0.007 0.012 0.008 0.020-0.001 0.004-0.001 0.007 0 0.011-0.093-0.026-0.189-0.046-0.285-0.059-0.16-0.022-0.323-0.010-0.478 0.037-0.447 0.042-0.882 0.169-1.282 0.374-0.384 0.147-0.734 0.373-1.026 0.662-0.504 0.508-0.833 1.162-0.942 1.868-0.036 0.121-0.055 0.247-0.056 0.374 0.001 0.071 0.006 0.142 0.016 0.213-0.007 0.074-0.007 0.149 0 0.224 0.013 0.158 0.048 0.313 0.104 0.461 0.008 0.044 0.015 0.088 0.022 0.131 0.003-0 0.006-0 0.009 0zM17.169 14.82c0.050 0.106 0.089 0.217 0.118 0.331 0.038 0.127 0.069 0.256 0.091 0.387 0.039 0.219 0.036 0.443-0.011 0.66-0.045 0.187-0.141 0.448-0.347 0.512s-0.404-0.091-0.525-0.244c-0.063-0.088-0.135-0.171-0.213-0.246-0.085-0.064-0.178-0.117-0.277-0.156-0.175-0.082-0.422-0.188-0.459-0.401-0.008-0.11 0.007-0.22 0.044-0.324 0.022-0.088 0.056-0.174 0.099-0.254 0.043-0.081 0.107-0.15 0.185-0.198 0.095-0.053 0.208-0.058 0.307-0.104 0.179-0.084 0.353-0.228 0.558-0.203 0.063-0.005 0.127 0.002 0.187 0.020 0.054 0.019 0.104 0.049 0.146 0.087s0.077 0.085 0.101 0.136l-0.004-0.004zM13.928 12.671c-0.008-0.086 0.129-0.086 0.138 0 0.025 0.256-0.094 0.501-0.072 0.755 0.031 0.134 0.075 0.265 0.131 0.391 0.030 0.126 0.049 0.254 0.054 0.383 0.004 0.116 0.018 0.231 0.042 0.345 0.012 0.047 0.031 0.107 0.091 0.104 0.046-0.006 0.091-0.020 0.133-0.039 0.183-0.072 0.331-0.212 0.414-0.391 0.081-0.178 0.087-0.416 0.298-0.501 0.047-0.015 0.096-0.019 0.145-0.014s0.096 0.021 0.138 0.046c0.045 0.021 0.095 0.030 0.145 0.027s0.098-0.019 0.14-0.046c0.083-0.053 0.171-0.099 0.261-0.138 0.107-0.031 0.22-0.037 0.331-0.019 0.264 0.028 0.526 0.058 0.79 0.085 0.118 0.019 0.239 0.012 0.353-0.022 0.082-0.036 0.157-0.084 0.224-0.144 0.127-0.131 0.281-0.233 0.451-0.3 0.017-0.003 0.033 0.001 0.048 0.010s0.024 0.023 0.029 0.039c0.005 0.016 0.003 0.033-0.004 0.048s-0.020 0.027-0.036 0.033c-0.211 0.061-0.353 0.251-0.525 0.368-0.235 0.156-0.507 0.107-0.776 0.079l-0.41-0.045c-0.129-0.024-0.261-0.029-0.391-0.015-0.197 0.042-0.34 0.235-0.556 0.202-0.098-0.013-0.207-0.109-0.306-0.073s-0.147 0.187-0.176 0.288c-0.054 0.195-0.171 0.367-0.332 0.489-0.125 0.094-0.399 0.251-0.539 0.118-0.060-0.080-0.092-0.177-0.092-0.278-0.016-0.118-0.021-0.246-0.033-0.368-0.013-0.131-0.047-0.258-0.099-0.379-0.051-0.105-0.079-0.219-0.084-0.335 0-0.242 0.098-0.467 0.075-0.705z"></path>
<path d="M18.523 15.74c-0.054 0.118 0.012 0.246 0.075 0.353l0.012 0.020h0.022c0.018 0 0.037 0 0.054 0.007 0.029 0.002 0.058 0.006 0.087 0.013 0.085-0.232 0.146-0.471 0.182-0.715-0.074 0.036-0.148 0.073-0.22 0.118-0.092 0.042-0.167 0.115-0.213 0.205z"></path>
<path d="M16.776 14.717c-0.009 0.002-0.019 0.002-0.028 0h-0.013c-0.048 0-0.098 0.012-0.145 0.019h-0.017c-0.126 0.041-0.235 0.132-0.36 0.182-0.097 0.025-0.192 0.057-0.285 0.096-0.070 0.049-0.123 0.118-0.154 0.198-0.031 0.076-0.055 0.155-0.072 0.235-0.019 0.044-0.026 0.093-0.021 0.141s0.022 0.094 0.049 0.133c0.118 0.138 0.317 0.193 0.471 0.275 0.083 0.042 0.16 0.096 0.227 0.161 0.061 0.067 0.118 0.137 0.172 0.209 0.096 0.118 0.288 0.305 0.451 0.174 0.072-0.071 0.125-0.159 0.153-0.255 0.032-0.086 0.053-0.176 0.064-0.267 0.017-0.193 0.005-0.387-0.038-0.576-0.033-0.187-0.089-0.368-0.167-0.541-0.017-0.043-0.044-0.081-0.078-0.112s-0.074-0.055-0.118-0.069c-0.030-0.005-0.061-0.006-0.092-0.004z"></path>
<path d="M19.848 14.519c-0.023-0.207-0.057-0.413-0.102-0.617-0.011-0.056-0.016-0.127-0.032-0.188s-0.045-0.152-0.072-0.226c-0.121-0.339-0.279-0.663-0.471-0.967-0.018-0.027-0.036-0.055-0.056-0.081 0.139-0.157 0.277-0.317 0.413-0.481 0.084-0.099-0.052-0.235-0.147-0.145-0.377 0.371-0.754 0.742-1.13 1.114 0.075 0.082 0.145 0.168 0.209 0.258 0.161-0.18 0.321-0.362 0.48-0.543 0.069 0.126 0.139 0.253 0.205 0.381 0.003 0.009 0.008 0.017 0.013 0.025 0.014 0.021 0.034 0.038 0.056 0.048 0.032 0.065 0.064 0.129 0.093 0.195 0.068 0.149 0.125 0.303 0.17 0.46 0.008 0.028 0.015 0.058 0.021 0.087l0.007 0.038c0 0 0 0.021 0 0.027 0.009 0.101 0.044 0.202 0.061 0.303 0.132 0.791 0.027 1.604-0.301 2.335-0.325 0.747-0.845 1.392-1.507 1.867-0.266 0.192-0.562 0.338-0.876 0.433-0.561 0.163-1.15 0.209-1.73 0.136s-1.138-0.264-1.641-0.562c-0.054-0.035-0.108-0.072-0.16-0.109 0.118-0.101 0.227-0.203 0.34-0.306-0.099-0.043-0.193-0.097-0.28-0.161-0.284 0.295-0.569 0.588-0.851 0.885-0.011 0.008-0.019 0.019-0.025 0.031s-0.009 0.025-0.009 0.039c0 0.013 0.003 0.027 0.009 0.039s0.014 0.023 0.025 0.031c0.009 0.010 0.020 0.019 0.033 0.025s0.026 0.009 0.040 0.009c0.014 0 0.028-0.003 0.040-0.009s0.024-0.014 0.033-0.025l0.463-0.404c0.683 0.486 1.495 0.757 2.333 0.779 0.128 0 0.259 0 0.391 0 0.004 0.587 0.058 1.173 0.162 1.75-0.477 0.023-0.953 0.056-1.428 0.1h-0.027c-0.005 0.003-0.010 0.006-0.014 0.011-0.008 0.010-0.013 0.023-0.013 0.036s0.005 0.026 0.013 0.036c0.004 0.006 0.009 0.011 0.015 0.015s0.013 0.006 0.020 0.006c1.057 0.204 2.148 0.157 3.184-0.137 0.016-0.002 0.030-0.010 0.039-0.023s0.014-0.028 0.012-0.044c-0.002-0.016-0.010-0.030-0.023-0.039s-0.028-0.014-0.044-0.012c-0.498-0.005-0.996 0.003-1.492 0.024 0.005-0.014 0.008-0.028 0.008-0.042 0.007-0.575 0-1.152-0.039-1.726 0.473-0.047 0.931-0.192 1.345-0.425 0.726-0.437 1.319-1.064 1.716-1.813 0.402-0.747 0.582-1.593 0.518-2.438z"></path>
</symbol>
<symbol id="icon-lips" viewBox="0 0 27 32">
<path d="M5.445 8.807c0.377-0.247 0.731-0.484 1.068-0.71 2.497-1.676 4.133-2.777 7.474-2.731 3.247 0.050 4.906 1.422 6.51 2.749 0.264 0.218 0.529 0.437 0.798 0.649 1.753 1.374 3.608 1.808 5.517 1.285-2.584-6.869-7.515-9.975-9.405-10.044-1.606-0.060-3.010 0.827-4.004 0.883s-1.988-0.844-3.561-0.885c-1.573-0.040-4.444 1.785-6.294 3.813-1.641 1.8-3.217 5.461-3.55 6.26 0.024 0.008 2.407 0.726 5.445-1.269zM4.262 4.287c1.089-1.338 4.922-4.717 8.142-2.743 0.104 0.065 0.139 0.203 0.076 0.312-0.062 0.107-0.199 0.142-0.305 0.077-2.953-1.811-6.545 1.382-7.571 2.643-0.044 0.055-0.108 0.082-0.171 0.082-0.051 0-0.1-0.018-0.142-0.052-0.095-0.081-0.108-0.223-0.028-0.32z"></path>
<path d="M16.8 12.222c-0.068 0.021-0.133 0.042-0.201 0.063 0 0-0.598 0.22-0.886 0.27-0.446 0.128-0.88 0.234-1.298 0.292-0.404 0.056-0.794 0.090-1.203 0.090-0.75 0-1.568-0.116-2.652-0.428-0.169-0.024-0.514-0.157-0.514-0.157-0.511-0.163-1.076-0.363-1.719-0.612-2.725-1.054-7.675-0.935-8.314-0.915 1.875 5.434 5.551 7.498 7.512 8.081 0.967 0.287 2.456 0.684 4.39 0.83-0.643-3.099-3.133-4.218-3.163-4.231-0.112-0.048-0.166-0.182-0.117-0.297 0.047-0.115 0.179-0.168 0.291-0.119 0.017 0.008 0.88 0.395 1.753 1.322 0.559 0.507 1.095 1.145 1.345 1.876 0.635 1.858 0.552 2.589 0.552 4.589 0 3.836-0.239 5.080-0.453 6.17-0.334 1.705-0.076 2.949 0.73 2.952 1.044 0.003 0.772-1.689 0.717-2.534-0.055-0.844-0.521-1.493-0.462-4.363 0.036-1.745 0-3.406 0-4.42 0-0.437 0.097-1.185 0.331-1.894 0.002-0.008 0.005-0.015 0.006-0.023 0.002-0.003 0.002-0.005 0.003-0.008 0.147-0.491 0.361-0.954 0.673-1.277 0.085-0.089 0.177-0.16 0.271-0.223 0.225-0.166 0.481-0.265 0.777-0.265 0.236 0 0.449 0.058 0.647 0.152 0.271 0.108 0.514 0.286 0.725 0.538 0.294 0.349 0.498 0.81 0.635 1.295 0.171 0.51 0.255 1.020 0.255 1.393 0 1.098 0 3.211 0 3.211s-0.071 1.041-0.329 2.078c-0.242 0.973-0.142 2.178 0.483 2.176 0.438-0.002 0.682-0.61 0.484-1.752-0.217-1.258-0.271-1.503-0.271-2.53 0-1.025 0-2.867 0-2.867s-0.022-0.463 0.052-1.090c0.003-0.031 0.008-0.060 0.011-0.090 0.009-0.094 0.025-0.184 0.041-0.276 0.011-0.065 0.022-0.129 0.036-0.194 0.116-0.578 0.32-1.211 0.684-1.729 0.036-0.052 0.071-0.1 0.108-0.148 0.598-0.975 1.285-1.639 1.339-1.69 0.090-0.086 0.229-0.081 0.313 0.011s0.079 0.234-0.011 0.32c-0.021 0.019-1.628 1.569-2.010 3.39 0.364-0.086 0.734-0.179 1.113-0.287 5.157-1.479 6.992-6.912 7.333-8.092-0.492 0.032-3.455 0.232-5.934 0.463-1.567 0.15-2.898 0.575-4.072 0.949z"></path>
<path d="M13.242 11.767h-3.195v0.113c1.383 0.45 2.334 0.607 3.195 0.604v-0.717z"></path>
<path d="M14.356 12.399c0.692-0.095 1.445-0.333 2.244-0.588v-0.044h-2.913v0.701c0.223-0.016 0.445-0.039 0.669-0.069z"></path>
<path d="M15.17 17.475c-0.282 0-0.522 0.107-0.733 0.324-0.437 0.452-0.654 1.272-0.761 1.99 0.973-0.015 2.032-0.1 3.173-0.291-0.114-0.567-0.315-1.132-0.642-1.521-0.285-0.339-0.623-0.504-1.037-0.504z"></path>
<path d="M18.104 7.803c0.087 0.126 0.237 0.232 0.516 0.232 0.394 0 0.755 0.010 1.022-0.042-0.117-0.095-0.236-0.189-0.356-0.281-0.008-0.006-0.016-0.011-0.024-0.018-0.215-0.165-0.437-0.324-0.665-0.476-0.054-0.036-0.108-0.071-0.161-0.107-0.109-0.071-0.22-0.14-0.334-0.208v0.899h0.002z"></path>
<path d="M9.364 6.851v1.233c0.193 0.323 0.696 0.797 1.999 0.797 1.356 0 1.814-0.286 1.965-0.641v-2.417c-1.619 0.055-2.796 0.418-3.964 1.027z"></path>
<path d="M13.98 5.818c-0.071-0.002-0.138 0.002-0.209 0.002v2.534c0.209 0.292 0.706 0.508 1.889 0.508 1.302 0 1.806-0.475 1.999-0.797v-1.403c-0.972-0.492-2.128-0.822-3.679-0.844z"></path>
<path d="M7.463 8.004c0.263 0.040 0.6 0.032 0.969 0.032 0.247 0 0.396-0.086 0.486-0.192v-0.751c-0.467 0.266-0.943 0.571-1.454 0.91z"></path>
</symbol>
<symbol id="icon-Group-1" viewBox="0 0 17 32">
<path d="M13.991 32c-1.918 0-8.457-0.378-8.964-0.515-0.031-0.087-0.064-0.174-0.097-0.263 0 0-0.284-0.746-0.341-0.897l-0.199-0.532c-0.117-0.315-0.237-0.642-0.361-0.961-0.078-0.202-0.164-0.405-0.248-0.603-0.042-0.101-0.162-0.385-0.162-0.385-0.049-0.119-0.098-0.237-0.142-0.354-0.077-0.206-0.151-0.412-0.226-0.618-0.144-0.396-0.293-0.803-0.452-1.203-0.164-0.413-0.31-0.838-0.452-1.249-0.086-0.248-0.173-0.505-0.264-0.757-0.076-0.211-0.168-0.421-0.255-0.624-0.056-0.128-0.111-0.256-0.164-0.386-0.372-0.915-0.683-1.865-0.929-2.827-0.135-0.53-0.21-1.017-0.228-1.492-0.011-0.278-0.018-0.558-0.026-0.836l-0.002-0.050c-0.009-0.346-0.020-0.7-0.033-1.046-0.026-0.661-0.056-1.253-0.093-1.811-0.013-0.191-0.036-0.385-0.058-0.573-0.016-0.136-0.033-0.265-0.046-0.393-0.018-0.203-0.033-0.409-0.047-0.608l-0.046-0.604c-0.027-0.342-0.053-0.69-0.069-1.031-0.035-0.713-0.055-1.342-0.066-1.92-0.007-0.446-0.002-0.93 0.018-1.481 0.009-0.273 0.029-0.55 0.049-0.818 0.011-0.15 0.022-0.299 0.031-0.449 0.005-0.080 0.007-0.161 0.011-0.241 0.004-0.106 0.007-0.196 0.013-0.286 0.004-0.061 0.013-0.124 0.020-0.184 0.005-0.046 0.013-0.093 0.016-0.138 0.022-0.228 0.044-0.457 0.066-0.685 0.027-0.295 0.097-0.528 0.217-0.734 0.106-0.181 0.23-0.281 0.397-0.323 0.128-0.031 0.248-0.048 0.357-0.048 0.173 0 0.332 0.041 0.468 0.121 0.273 0.161 0.45 0.38 0.523 0.653l0.049 0.177c0.046 0.157 0.089 0.312 0.115 0.466 0.051 0.323 0.078 0.61 0.086 0.875 0.005 0.241 0.042 0.481 0.077 0.712 0.013 0.082 0.026 0.164 0.036 0.247 0.020 0.146 0.036 0.29 0.053 0.436 0.022 0.191 0.046 0.389 0.075 0.582 0.044 0.297 0.097 0.597 0.148 0.888l0.075 0.435c0.044 0.251 0.087 0.51 0.137 0.764 0.064 0.329 0.137 0.678 0.23 1.1 0.009 0.045 0.004 0.074-0.024 0.112-0.177 0.251-0.286 0.52-0.326 0.802-0.047 0.329-0.049 0.672-0.011 1.050l0.018 0.191c0.020 0.21 0.042 0.428 0.082 0.642 0.049 0.259 0.107 0.521 0.166 0.774 0.053 0.236 0.102 0.458 0.146 0.679 0.097 0.487 0.246 0.971 0.39 1.44 0.055 0.176 0.107 0.349 0.159 0.522 0.102 0.346 0.193 0.626 0.29 0.877 0.055 0.14 0.128 0.275 0.2 0.406 0.026 0.045 0.051 0.091 0.075 0.136 0.128 0.241 0.292 0.522 0.541 0.776 0.282 0.286 0.647 0.464 1.082 0.524 0.091 0.012 0.184 0.019 0.275 0.019 0.224 0 0.448-0.037 0.663-0.111 0.239-0.082 0.47-0.177 0.692-0.271 0.044-0.019 0.062-0.020 0.073-0.020s0.026 0.003 0.042 0.010c0.189 0.072 0.408 0.117 0.689 0.142 0.067 0.005 0.135 0.008 0.2 0.008 0.388 0 0.754-0.1 1.12-0.304 0.425-0.237 0.692-0.555 0.823-0.971 0.029-0.094 0.060-0.188 0.093-0.282 0.042-0.127 0.078-0.233 0.111-0.34 0.007-0.020 0.013-0.041 0.016-0.063 0.053 0.057 0.106 0.113 0.16 0.17 0.109 0.116 0.219 0.232 0.321 0.348 0.18 0.206 0.321 0.405 0.428 0.608 0.097 0.181 0.244 0.338 0.388 0.481 0.046 0.044 0.087 0.090 0.131 0.135 0.122 0.13 0.246 0.261 0.414 0.368 0.015 0.012 0.025 0.020 0.038 0.026 0 0 0.548 0.315 0.738 0.423 0.047 0.026 0.098 0.052 0.16 0.059 0.016 0.003 0.035 0.003 0.055 0.003 0.049 0 0.118-0.008 0.168-0.044 0.038-0.027 0.056-0.063 0.055-0.099-0.002-0.044-0.035-0.086-0.091-0.122l-0.159-0.099c-0.142-0.089-0.288-0.18-0.435-0.265-0.155-0.089-0.315-0.188-0.434-0.315l-0.135-0.143c-0.126-0.135-0.242-0.258-0.352-0.38-0.033-0.035-0.056-0.075-0.082-0.117-0.016-0.025-0.031-0.049-0.047-0.074l-0.106-0.155c-0.102-0.153-0.204-0.305-0.317-0.445-0.077-0.095-0.169-0.188-0.25-0.27-0.067-0.068-0.137-0.139-0.199-0.211-0.149-0.173-0.291-0.34-0.397-0.513-0.25-0.41-0.659-0.693-1.257-0.864-0.698-0.2-1.437-0.421-2.119-0.73-0.24-0.109-0.425-0.206-0.581-0.308-0.599-0.391-1.071-0.791-1.445-1.223-0.138-0.161-0.246-0.341-0.324-0.548-0.046-0.12-0.038-0.252 0.026-0.415 0.066-0.168 0.175-0.329 0.343-0.5l0.046 0.027c0.097 0.049 0.188 0.095 0.275 0.147 0.457 0.275 0.975 0.494 1.43 0.687 0.235 0.1 0.499 0.195 0.782 0.284 0.113 0.035 0.23 0.055 0.344 0.072 0.055 0.010 0.109 0.018 0.162 0.029 0.026 0.005 0.053 0.008 0.078 0.008 0.106 0 0.193-0.049 0.224-0.128 0.089-0.221 0.173-0.442 0.251-0.648 0.013-0.034 0.022-0.067 0.031-0.102 0.321 0.064 0.649 0.106 0.98 0.124 0.202 0.011 0.65 0.037 0.65 0.037 0.264 0.015 0.534 0.031 0.802 0.044 0.384 0.019 0.709 0.128 0.995 0.334 0.312 0.225 0.592 0.492 0.858 0.819 0.069 0.086 0.138 0.173 0.208 0.26 0.129 0.165 0.25 0.316 0.373 0.464 0.169 0.198 0.346 0.386 0.525 0.558 0.118 0.115 0.257 0.215 0.39 0.314l0.051 0.038c0.118 0.087 0.244 0.173 0.386 0.262 0.148 0.093 0.286 0.205 0.448 0.364l0.029 0.029c0.281 0.275 0.57 0.56 0.807 0.864 0.233 0.301 0.353 0.623 0.439 0.899 0.093 0.301 0.075 0.612 0.058 0.914l-0.011 0.192c-0.018 0.421-0.086 0.836-0.197 1.233l-0.020 0.057c-0.064 0.228-0.131 0.464-0.215 0.691-0.108 0.297-0.222 0.599-0.332 0.889-0.146 0.386-0.288 0.764-0.421 1.136-0.077 0.213-0.133 0.431-0.188 0.641 0 0-0.051 0.194-0.075 0.275l-0.093 0.326c-0.077 0.266-0.155 0.54-0.222 0.81-0.073 0.288-0.14 0.582-0.206 0.867l-0.102 0.441-0.095 0.394c-0.064 0.265-0.129 0.529-0.184 0.792-0.049 0.234-0.089 0.473-0.129 0.705l-0.058 0.344c-0.011 0.056-0.020 0.105-0.033 0.149-0.046 0.171-0.086 0.339-0.087 0.518 0 0.063-0.016 0.131-0.031 0.196l-0.011 0.045c-0.093 0.429-0.126 0.885-0.1 1.43 0.002 0.033 0 0.064-0.002 0.094-0.046 0.005-0.153 0.012-0.392 0.012z"></path>
<path d="M14.847 15.789c-0.082-0.074-0.16-0.147-0.233-0.225-0.146-0.155-0.335-0.363-0.497-0.578-0.264-0.349-0.576-0.682-0.849-0.975-0.293-0.314-0.638-0.513-1.053-0.614-0.222-0.053-0.465-0.087-0.762-0.108h-0.004v-0.025c-0.002-0.108-0.004-0.19 0.002-0.274 0.024-0.322-0.005-0.665-0.091-1.083-0.049-0.24-0.077-0.46-0.080-0.67-0.011-0.645 0.016-1.344 0.082-2.139 0.011-0.128 0.009-0.26 0.007-0.387-0.002-0.076-0.002-0.15-0.002-0.224 0.002-0.115 0.005-0.23 0.011-0.345 0 0 0.073-2.299 0.077-2.486 0.005-0.196 0.009-0.391 0.013-0.588 0.007-0.408 0.016-0.829 0.040-1.242 0.029-0.515 0.089-0.907 0.193-1.267 0.013-0.044 0.018-0.087 0.024-0.131 0.004-0.037 0.007-0.067 0.015-0.097 0.031-0.136 0.058-0.274 0.086-0.41 0.067-0.337 0.137-0.684 0.257-1.017 0.058-0.161 0.131-0.311 0.219-0.446 0.155-0.237 0.434-0.387 0.829-0.443 0.089-0.010 0.186-0.016 0.288-0.016 0.033 0 0.066 0.001 0.098 0.003 0.233 0.010 0.406 0.093 0.548 0.262 0.098 0.12 0.179 0.247 0.242 0.386 0.235 0.518 0.261 1.054 0.268 1.602 0.002 0.169 0.004 0.34 0.004 0.509 0.002 0.372 0.004 0.757 0.020 1.134 0.013 0.292 0.044 0.582 0.075 0.865 0.013 0.109 0.024 0.218 0.035 0.327 0.009 0.083 0.018 0.165 0.029 0.248 0.020 0.16 0.038 0.308 0.046 0.454 0.036 0.7 0.082 1.619 0.104 2.538 0.005 0.228 0.002 0.46-0.002 0.683v0.025c-0.002 0.18-0.005 0.365-0.004 0.55s-0.016 0.372-0.035 0.555c-0.011 0.119-0.024 0.24-0.031 0.36-0.009 0.17-0.013 0.344-0.016 0.51-0.004 0.125-0.005 0.252-0.011 0.378-0.007 0.155-0.015 0.311-0.022 0.466-0.011 0.198-0.022 0.401-0.027 0.601l-0.007 0.209c-0.016 0.457-0.033 0.929 0.007 1.396 0.007 0.075 0.009 0.151 0.013 0.226 0.004 0.064 0.005 0.12 0.009 0.176l0.087 1.327z"></path>
<path d="M6.429 20.115c-0.189 0-0.388-0.029-0.612-0.087-0.149-0.040-0.284-0.119-0.412-0.243-0.237-0.229-0.395-0.49-0.537-0.736-0.222-0.386-0.39-0.79-0.512-1.234-0.069-0.251-0.146-0.506-0.219-0.751-0.080-0.267-0.162-0.544-0.235-0.817-0.055-0.202-0.097-0.409-0.138-0.608-0.024-0.112-0.046-0.221-0.069-0.33-0.027-0.121-0.057-0.244-0.087-0.365-0.058-0.239-0.118-0.485-0.159-0.727-0.111-0.668-0.126-1.218-0.044-1.726 0.038-0.241 0.086-0.44 0.195-0.629 0.113-0.196 0.292-0.341 0.532-0.43 0.091-0.034 0.21-0.045 0.29-0.049 0.113-0.007 0.217-0.011 0.317-0.011 0.355 0 0.658 0.046 0.926 0.142 0.159 0.056 0.277 0.121 0.364 0.202 0.18 0.165 0.341 0.315 0.485 0.475 0.071 0.079 0.106 0.173 0.135 0.275-0.098-0.019-0.195-0.029-0.293-0.029-0.2 0-0.404 0.040-0.619 0.121-0.448 0.169-0.731 0.45-0.864 0.859-0.036 0.112-0.075 0.245-0.086 0.38-0.016 0.188 0.056 0.363 0.138 0.539 0.171 0.368 0.494 0.661 0.807 0.945 0.339 0.307 0.705 0.582 1.089 0.819 0.024 0.014 0.033 0.025 0.031 0.063l-0.002 0.034c-0.013 0.284-0.026 0.577-0.035 0.866-0.007 0.196-0.011 0.394-0.015 0.59l-0.005 0.265-1.397 0.228c-0.126 0.020-0.253 0.041-0.377 0.065-0.177 0.035-0.253 0.134-0.208 0.271 0.082 0.251 0.186 0.466 0.313 0.663 0.155 0.239 0.377 0.445 0.676 0.629 0.244 0.15 0.523 0.17 0.765 0.17l0.097-0.001c0.042-0.001 0.084-0.004 0.126-0.007 0.033-0.003 0.066-0.005 0.1-0.005 0.177-0.005 0.332-0.049 0.465-0.097l0.038 0.026c-0.080 0.041-0.164 0.072-0.246 0.104-0.038 0.015-0.077 0.029-0.115 0.044-0.191 0.071-0.388 0.108-0.603 0.108z"></path>
<path d="M10.947 13.276c-0.149-0.008-0.291-0.015-0.435-0.019-0.608-0.018-1.201-0.153-1.773-0.282l-0.097-0.022c-0.355-0.080-0.711-0.162-1.064-0.244l-0.41-0.094c-0.044-0.106-0.051-0.19-0.024-0.271 0.118-0.365 0.281-0.687 0.494-0.985 0.155-0.217 0.381-0.371 0.689-0.473 0.286-0.094 0.574-0.14 0.88-0.14 0.286 0 0.581 0.040 0.902 0.123 0.164 0.042 0.281 0.134 0.414 0.239l0.051 0.041c0.217 0.169 0.279 0.393 0.328 0.629 0.047 0.222 0.082 0.449 0.117 0.668l0.022 0.14c0.009 0.057 0.013 0.121 0.011 0.2-0.004 0.134-0.009 0.267-0.016 0.408l-0.004 0.089-0.084-0.005z"></path>
<path d="M8.578 19.904c-0.235 0-0.446-0.050-0.643-0.154-0.381-0.2-0.599-0.484-0.669-0.867-0.044-0.244-0.044-0.494-0.044-0.736 0-0.13 0-0.259-0.007-0.389-0.011-0.248 0.009-0.502 0.029-0.746 0.013-0.154 0.026-0.308 0.031-0.461 0.002-0.070 0.002-0.14 0.002-0.215l0.047 0.022c0.16 0.071 0.31 0.136 0.461 0.199 0.561 0.23 1.044 0.406 1.572 0.52 0.21 0.045 0.479 0.113 0.701 0.245 0.115 0.068 0.199 0.139 0.255 0.215 0 0 0.122 0.161 0.148 0.195 0.053 0.072 0.071 0.135 0.060 0.203-0.046 0.271-0.12 0.54-0.226 0.796-0.035 0.083-0.077 0.166-0.118 0.247-0.040 0.075-0.078 0.15-0.111 0.226-0.1 0.229-0.337 0.383-0.578 0.514-0.22 0.12-0.49 0.154-0.747 0.177-0.056 0.007-0.111 0.008-0.164 0.008zM7.573 18.704c-0.002 0.059-0.004 0.115 0.005 0.17l0.007 0.045c0.016 0.112 0.035 0.228 0.089 0.338 0.095 0.191 0.268 0.319 0.503 0.368 0.104 0.022 0.199 0.042 0.295 0.042l0.25 0.001c0.118 0 0.259-0.003 0.401-0.023 0.251-0.037 0.454-0.162 0.618-0.382 0.159-0.211 0.255-0.45 0.288-0.708 0.027-0.21 0.058-0.421 0.086-0.608 0.024-0.153-0.036-0.215-0.233-0.247-0.649-0.105-1.303-0.16-1.973-0.21-0.026-0.003-0.049-0.003-0.069-0.003-0.189 0-0.22 0.11-0.237 0.17-0.046 0.169-0.024 0.765-0.033 0.849l0.004 0.195z"></path>
<path d="M8.531 13.974c-0.106-0.025-0.186-0.042-0.262-0.063-0.301-0.079-0.576-0.195-0.876-0.327l-0.215-0.093c-0.195-0.085-0.392-0.169-0.581-0.259-0.193-0.093-0.381-0.19-0.578-0.292l-0.124-0.064c0.135-0.064 0.246-0.094 0.361-0.1 0.018-0.001 0.038-0.001 0.058-0.001 0.149 0 0.302 0.026 0.468 0.080 0.208 0.068 0.425 0.123 0.632 0.175l0.107 0.027c0.313 0.079 0.629 0.157 0.947 0.236l0.301 0.075-0.239 0.605z"></path>
<path d="M6.587 19.59c-0.308-0.001-0.541-0.090-0.692-0.262-0.222-0.255-0.45-0.528-0.588-0.824 0.077-0.016 0.148-0.031 0.222-0.042 0.363-0.055 0.727-0.106 1.091-0.158l0.173-0.025c-0.002 0.061-0.002 0.109 0.002 0.157 0.011 0.166 0.026 0.36 0.047 0.552 0.016 0.154 0.084 0.307 0.21 0.48l0.056 0.079c-0.064 0.019-0.135 0.030-0.217 0.035-0.073 0.005-0.153 0.007-0.257 0.007h-0.047z"></path>
<path d="M8.661 19.352c-0.131 0-0.251-0.014-0.366-0.040-0.153-0.035-0.244-0.125-0.264-0.259-0.018-0.121-0.020-0.247-0.022-0.369l-0.002-0.115c-0.004-0.127-0.004-0.254-0.004-0.38v-0.36c0.435 0.025 1.361 0.13 1.671 0.188-0.009 0.060-0.020 0.123-0.031 0.184l-0.033 0.175c-0.020 0.11-0.038 0.207-0.055 0.305-0.024 0.151-0.089 0.296-0.195 0.43-0.106 0.135-0.259 0.207-0.483 0.229-0.073 0.008-0.148 0.012-0.217 0.012z"></path>
</symbol>
<symbol id="icon-arrow" viewBox="0 0 40 32">
<path d="M39.54 2.148c-0.254-0.426-0.653-0.748-1.124-0.906-1.272-0.474-3.048-0.26-3.766 0.696-4.472 5.944-8.596 12.010-12.912 18.006-0.526 0.73-1.052 1.456-1.586 2.18-5.078-6.658-9.78-13.456-14.996-20.060-1.326-1.676-5.5-0.92-5.134 0.98 1.146 5.922 2.992 7.032 9.084 18.612 0.554 1.050 3.568 5.246 4.554 6.126 0.864 0.772 1.724 1.584 2.706 2.284 1.56 1.114 3.94 1.236 5.74 0.32 1.248-0.632 3.352-3.57 4.15-4.49 3.058-3.534 5.626-7.714 6.904-9.902 2.546-4.34 4.288-7.924 6.708-12.3 0.276-0.502 0.098-1.080-0.33-1.546h0.002z"></path>
</symbol>
<symbol id="icon-logo" viewBox="0 0 24 32">
<path d="M3.552 10.357l-1.786-1.375 2.226-0.032 0.124-0.391-2.050-1.46c-0.316-0.226-0.545-0.435-0.661-0.673l-0.008-0.004-0.236 0.758 0.008 0.004c0.237-0.181 0.565-0.173 0.985 0.125l1.189 0.843-1.558 0.016c-0.392 0-0.669-0.109-0.813-0.342l-0.008-0.004-0.404 1.29 0.008 0.004c0.236-0.117 0.549-0.133 0.881-0.133h0.128l1.245 0.952-1.59-0.004c-0.392 0-0.673-0.101-0.817-0.339l-0.012 0.004-0.404 1.291 0.008 0.004c0.236-0.117 0.545-0.133 0.881-0.133h2.539l0.124-0.399v-0zM2.851 6.16l1.129 0.766c0.356 0.242 0.472 0.379 0.665 0.665l0.008 0.004 0.641-0.951-0.008-0.004c-0.329-0.069-0.517-0.133-0.861-0.367l-1.129-0.77c-0.344-0.234-0.473-0.387-0.661-0.669l-0.008-0.004-0.641 0.951 0.008 0.004c0.328 0.073 0.5 0.129 0.857 0.375zM4.18 4.354l0.909 1.020c0.284 0.318 0.369 0.488 0.481 0.806l0.004 0.008 1.694-1.524-0.501-0.911-0.044 0.024c0.060 0.399 0.080 1.121-0.14 1.334l-0.352 0.359-1.462-1.645c-0.28-0.314-0.364-0.484-0.48-0.806l-0.004-0.008-0.849 0.766 0.004 0.008c0.304 0.149 0.456 0.246 0.741 0.568zM6.855 2.129l0.525 1.355c0.148 0.383 0.168 0.564 0.156 0.891l0.004 0.008 1.209-0.476c1.137-0.448 1.578-1.25 1.201-2.225-0.376-0.98-1.273-1.246-2.375-0.81-0.545 0.214-0.773 0.322-1.201 0.492l0.004 0.008c0.224 0.234 0.328 0.367 0.477 0.758h-0zM7.6 0.976c0.737-0.302 1.193 0.089 1.578 1.073 0.336 0.871 0.316 1.443-0.457 1.746-0.020 0.008-0.188 0.069-0.328 0.109l-1.081-2.794c0.112-0.052 0.256-0.121 0.288-0.133v0zM12.65 3.346c0.637 0.061 1.237-0.145 1.305-0.867 0.060-0.633-0.361-0.948-0.773-1.214-0.388-0.238-0.765-0.435-0.733-0.79 0.024-0.258 0.232-0.407 0.496-0.383 0.328 0.032 0.605 0.339 0.893 0.947l0.048-0.008-0.036-0.847c-0.217-0.091-0.447-0.15-0.681-0.173-0.621-0.060-1.225 0.129-1.289 0.802-0.056 0.589 0.368 0.879 0.793 1.149 0.376 0.238 0.729 0.444 0.693 0.835-0.028 0.282-0.236 0.492-0.589 0.46-0.393-0.040-0.697-0.375-1.049-1.121l-0.044 0.008 0.028 0.907c0.233 0.137 0.569 0.258 0.937 0.294zM15.585 4.173c0.861 0.419 1.85 0.097 2.262-0.766 0.412-0.859 0.060-1.851-0.801-2.27-0.865-0.423-1.854-0.085-2.266 0.774-0.416 0.863-0.060 1.842 0.805 2.262h-0zM15.541 2.286c0.396-0.826 0.905-1.322 1.461-1.052s0.477 0.98 0.080 1.806c-0.4 0.826-0.905 1.314-1.454 1.048-0.549-0.274-0.485-0.976-0.088-1.802v-0zM18.195 6.084c0.657 0.669 1.205 0.435 1.738-0.093l0.725-0.721c0.312-0.311 0.529-0.363 0.937-0.411v-0.012l-0.605-0.613-0.008 0.008c-0.032 0.419-0.104 0.625-0.416 0.94l-0.749 0.742c-0.433 0.431-0.929 0.645-1.35 0.218-0.312-0.319-0.336-0.734 0.212-1.282l0.817-0.814c0.304-0.303 0.484-0.407 0.781-0.52l0.008-0.008-0.809-0.823-0.008 0.004c-0.136 0.315-0.216 0.472-0.525 0.778l-0.789 0.786c-0.629 0.625-0.497 1.274 0.040 1.822zM20.258 7.015c-0.376 0.198-0.561 0.238-0.897 0.27l-0.008 0.004 1.049 2.028 1.001-0.266-0.012-0.048c-0.397-0.040-1.097-0.198-1.253-0.464l-0.26-0.431 1.946-1.020c0.372-0.198 0.557-0.238 0.897-0.27l0.008-0.004-0.525-1.016-0.008 0.004c-0.22 0.262-0.352 0.383-0.733 0.585l-1.205 0.629zM24.002 10.261c-0.124-0.617-0.48-1.141-1.141-1.008-0.577 0.117-0.729 0.613-0.861 1.101-0.116 0.431-0.208 0.831-0.593 0.911-0.276 0.057-0.536-0.084-0.609-0.431-0.080-0.391 0.152-0.778 0.757-1.339l-0.020-0.040-0.857 0.29c-0.060 0.262-0.076 0.621-0.004 0.984 0.128 0.633 0.5 1.149 1.205 1.004 0.621-0.125 0.793-0.621 0.925-1.097 0.112-0.443 0.188-0.863 0.537-0.935 0.252-0.052 0.457 0.105 0.509 0.367 0.064 0.327-0.144 0.677-0.641 1.137l0.024 0.044 0.793-0.282c0.032-0.218 0.024-0.463-0.024-0.706v0zM1.341 17.272l1.878 0.048 0.008-0.234c-0.16-0.073-0.332-0.27-0.332-0.553l-0.224-0.004c-0.008 0.238 0.088 0.435 0.18 0.516l-1.501-0.041-0.008 0.266h-0zM2.218 19.679c0.613 0.016 0.977-0.214 0.993-0.702 0.012-0.492-0.34-0.738-0.953-0.754s-0.977 0.214-0.993 0.702c-0.016 0.492 0.34 0.738 0.953 0.754zM2.25 18.485c0.445 0.012 0.753 0.125 0.741 0.484-0.008 0.363-0.32 0.456-0.765 0.443s-0.753-0.121-0.741-0.484c0.008-0.359 0.32-0.456 0.765-0.443v-0zM3.151 21.271c0.012-0.492-0.34-0.738-0.953-0.754s-0.977 0.214-0.993 0.702c-0.012 0.492 0.34 0.738 0.953 0.754s0.981-0.21 0.993-0.702zM1.421 21.227c0.008-0.359 0.32-0.456 0.765-0.443s0.753 0.125 0.741 0.484c-0.008 0.363-0.32 0.456-0.765 0.443-0.44-0.012-0.749-0.121-0.741-0.484zM2.166 24.235c-0.397 0.113-0.457 0.375-0.397 0.593s0.248 0.411 0.645 0.302c0.397-0.113 0.457-0.375 0.393-0.597-0.056-0.214-0.244-0.407-0.641-0.298h0zM2.367 24.945c-0.22 0.060-0.372 0.020-0.425-0.157-0.052-0.181 0.056-0.294 0.28-0.359 0.22-0.060 0.372-0.020 0.425 0.157 0.048 0.177-0.060 0.294-0.28 0.359zM3.576 24.154l-2.134-0.637 0.060 0.218 2.134 0.637-0.060-0.218h-0zM2.659 22.759c-0.396 0.113-0.456 0.375-0.392 0.593 0.060 0.218 0.248 0.411 0.645 0.302 0.397-0.113 0.457-0.375 0.397-0.597-0.064-0.218-0.252-0.411-0.649-0.298zM3.135 23.106c0.052 0.181-0.056 0.294-0.28 0.359-0.22 0.061-0.372 0.020-0.425-0.157-0.052-0.181 0.056-0.294 0.28-0.359 0.22-0.065 0.372-0.024 0.425 0.157zM4.993 26.763l-0.365-0.464-1.474 1.173 0.164 0.206 0.549-0.435 0.2 0.254c0.3 0.383 0.621 0.476 0.933 0.23s0.292-0.581-0.008-0.964zM4.833 27.517c-0.192 0.153-0.365 0.133-0.593-0.161l-0.196-0.25 0.577-0.46 0.196 0.25c0.228 0.294 0.208 0.468 0.016 0.621h0zM6.899 28.585l-0.717 0.931c-0.232 0.298-0.433 0.314-0.681 0.121-0.248-0.198-0.284-0.395-0.052-0.693l0.721-0.931-0.208-0.161-0.745 0.968c-0.3 0.387-0.208 0.726 0.148 1.004s0.705 0.282 1.001-0.105l0.745-0.968-0.212-0.165zM8.385 29.404l-0.541-0.234-0.745 1.742 0.24 0.105 0.276-0.649 0.328 0.141 0.2 0.855 0.296 0.129-0.224-0.915c0.28 0.052 0.508-0.044 0.629-0.327 0.16-0.367-0.016-0.653-0.461-0.846zM8.601 30.141c-0.096 0.226-0.264 0.29-0.601 0.141l-0.292-0.125 0.292-0.681 0.292 0.125c0.34 0.153 0.404 0.314 0.308 0.54zM9.566 31.79l1.237 0.21 0.036-0.222-0.977-0.165 0.104-0.625 0.809 0.137 0.036-0.222-0.809-0.137 0.096-0.581 0.977 0.165 0.036-0.218-1.237-0.21-0.308 1.867h-0zM14.407 30.746l-0.22 0.040c0.036 0.185 0.028 0.351-0.016 0.488l-0.505-0.411c0.216-0.194 0.352-0.355 0.312-0.577-0.048-0.254-0.28-0.363-0.533-0.314-0.316 0.060-0.444 0.274-0.4 0.504 0.032 0.165 0.172 0.294 0.316 0.411-0.224 0.198-0.416 0.399-0.368 0.669 0.052 0.294 0.328 0.435 0.693 0.367 0.244-0.045 0.42-0.169 0.541-0.323l0.188 0.153 0.288-0.052-0.364-0.294c0.083-0.21 0.106-0.439 0.068-0.661zM13.274 30.428c-0.028-0.145 0.048-0.238 0.204-0.27 0.136-0.024 0.244 0.044 0.268 0.181 0.024 0.125-0.008 0.214-0.228 0.407-0.132-0.109-0.224-0.193-0.244-0.318h0zM13.675 31.718c-0.256 0.048-0.408-0.044-0.44-0.226-0.036-0.189 0.084-0.318 0.272-0.488l0.564 0.472c-0.098 0.127-0.239 0.213-0.396 0.242zM16.938 28.565l0.809 1.314-1.562-0.843-0.272 0.169 0.989 1.609 0.212-0.133-0.809-1.314 1.562 0.843 0.272-0.169-0.989-1.609-0.212 0.133zM18.171 27.497l0.873 1.822 0.188-0.198-0.212-0.415 0.577-0.609 0.425 0.194 0.192-0.206-1.85-0.79-0.192 0.202zM19.397 28.009l-0.477 0.5-0.465-0.923 0.941 0.423zM19.977 25.408l-0.196-0.121-0.745 1.23 0.192 0.117 0.304-0.5 1.414 0.867 0.136-0.226-1.409-0.867 0.304-0.5zM21.647 23.739l-1.153-0.383-0.080 0.25 1.113 0.371c0.356 0.117 0.44 0.302 0.34 0.605s-0.272 0.403-0.633 0.282l-1.113-0.367-0.080 0.25 1.153 0.383c0.465 0.153 0.749-0.044 0.889-0.476 0.136-0.431 0.024-0.762-0.436-0.915zM21.315 21.211c-0.397-0.028-0.605 0.234-0.637 0.722l-0.040 0.589 1.874 0.125 0.016-0.262-0.697-0.044 0.024-0.359 0.733-0.476 0.020-0.323-0.781 0.516c-0.044-0.282-0.208-0.468-0.513-0.488zM21.611 22.324l-0.733-0.049 0.020-0.318c0.024-0.375 0.152-0.488 0.4-0.472 0.24 0.016 0.356 0.153 0.333 0.52l-0.020 0.319zM20.738 19.804l1.862 0.762 0.008-0.27-0.433-0.165 0.020-0.839 0.44-0.145 0.008-0.282-1.898 0.661-0.008 0.278zM21.979 19.356l-0.016 0.689-0.957-0.371 0.973-0.319zM22.444 17.768l-1.654-0.044-0.008 0.266 1.878 0.049 0.032-1.169-0.224-0.004-0.024 0.903zM12.69 14.893c0.032-0.206 0.060-0.387 0.072-0.464-0.621-0.286-1.193-0.524-1.55-0.661 0.064 0.214 0.337 0.665 1.478 1.125zM13.414 10.974c-0.084 0.181 0.008 0.685-0.24 0.899s-0.408 0.238-0.408 0.238l0.26 2.218c0.596 0.278 1.217 0.589 1.738 0.891-0.925-4.685-0.917-4.681-0.917-4.681s-0.348 0.254-0.432 0.435h-0zM11.853 19.925c0.088-0.044 0.148-0.109 0.172-0.145-0.12-0.308-0.238-0.617-0.352-0.927l-0.296 0.198c0.124 0.435 0.336 0.875 0.476 0.875zM12.774 18.949c-0.056-0.189-0.152-0.512-0.26-0.875-0.076 0.048-0.176 0.109-0.24 0.149 0.032 0.25 0.184 0.754 0.3 0.843 0.072-0.032 0.14-0.065 0.2-0.117z"></path>
<path d="M11.056 19.655c0.012 0.044 0.016 0.089 0.016 0.133 0.188 0.113 0.361 0.173 0.509 0.185-0.232-0.27-0.38-0.806-0.412-0.944-0.012-0.040 0.008-0.085 0.040-0.109l0.393-0.266c-0.096-0.266-0.184-0.516-0.236-0.69-0.168-0.564-1.113-3.253-1.285-3.56-0.1-0.178-0.26-0.294-0.408-0.303-0.112-0.004-0.216 0.052-0.304 0.169-0.156 0.218-0.236 0.859-0.172 1.383 0.052 0.020 0.104 0.044 0.156 0.073 0.365 0.206 0.865 0.722 1.189 2 0.248 0.968 0.376 1.427 0.444 1.677 0.040 0.121 0.060 0.194 0.072 0.25zM10.611 18.788l-0.34 0.282c0.088 0.371 0.276 0.899 0.428 0.98 0.008 0.004 0.012 0.004 0.016 0.004 0.036-0.020 0.068-0.040 0.092-0.073 0.060-0.073 0.080-0.173 0.052-0.282-0.012-0.056-0.032-0.125-0.064-0.242-0.036-0.137-0.096-0.343-0.184-0.669z"></path>
<path d="M9.879 13.95c0.148 0.065 0.28 0.19 0.376 0.355 0.196 0.343 1.157 3.105 1.305 3.604 0.084 0.282 0.276 0.802 0.432 1.218 0.048 0.008 0.2 0.028 0.376-0.004-0.2-0.286-0.296-0.879-0.3-0.947-0-0.017 0.003-0.034 0.011-0.050s0.019-0.029 0.033-0.039c0.060-0.040 0.241-0.153 0.34-0.214-0.244-0.822-0.525-1.754-0.529-1.77-0.008-0.020-0.004-0.040 0.004-0.060-0.641-0.468-1.209-1.218-0.929-2.443v-0.004c0-0.004 0.004-0.008 0.004-0.012l0.012-0.024 0.012-0.012c0.004-0.008 0.012-0.012 0.020-0.016l0.004-0.004c0.004-0.004 0.008-0.004 0.012-0.004 0.008-0.004 0.012-0.004 0.020-0.008h0.036c0.004 0 0.004 0.004 0.008 0.004h0.008c0.072 0.028 0.16 0.060 0.252 0.097-0.016-0.049-0.028-0.089-0.044-0.133-0.1-0.27-0.22-0.443-0.372-0.532-0.008-0.004-0.016-0.004-0.024-0.008-0.152-0.077-0.34-0.081-0.581-0.008-0.533 0.157-0.5 0.855-0.488 1.016z"></path>
<path d="M14.828 15.486c-0.545-0.327-1.229-0.669-1.878-0.972-0.020 0.113-0.052 0.319-0.084 0.532-0.003 0.015-0.008 0.029-0.017 0.041s-0.019 0.023-0.031 0.031c-0.016 0.008-0.034 0.012-0.052 0.012-0.012 0-0.024-0.004-0.036-0.008-0.989-0.379-1.418-0.774-1.606-1.068-0.1 1.484 1.253 2.076 1.938 2.371l0.1 0.044c0.022 0.010 0.039 0.027 0.049 0.048s0.013 0.046 0.007 0.069c-0.308 1.129 0.336 1.484 0.344 1.488 0.024 0.013 0.041 0.034 0.050 0.060s0.006 0.053-0.006 0.077c-0.016 0.036-0.052 0.052-0.088 0.052-0.017-0-0.033-0.004-0.048-0.012-0.032-0.016-0.761-0.415-0.464-1.633l-0.024-0.008c-0.216-0.093-0.517-0.226-0.825-0.415 0.16 0.532 0.689 2.29 0.821 2.754 0.012 0.036 0 0.073-0.024 0.101-0.097 0.097-0.215 0.171-0.344 0.218-0.004 0-0.008 0.004-0.008 0.004-0.136 0.049-0.28 0.073-0.425 0.073-0.040 0-0.076 0-0.108-0.004 0.092 0.238 0.156 0.411 0.16 0.415 0.012 0.024 0.008 0.056-0.004 0.081-0.004 0.008-0.112 0.234-0.388 0.314-0.068 0.020-0.138 0.029-0.208 0.028-0.18 0-0.385-0.064-0.601-0.185-0.016 0.044-0.040 0.085-0.068 0.121-0.040 0.052-0.092 0.089-0.152 0.121-0.004 0.004-0.008 0.008-0.016 0.012h-0.004c-0.082 0.041-0.173 0.061-0.264 0.056-0.244-0.008-0.849-0.157-1.141-1.387-0.252-1.048-0.364-1.226-0.517-1.387-0.036-0.040-0.036-0.105 0.004-0.141s0.104-0.036 0.14 0.004c0.192 0.206 0.312 0.419 0.568 1.48 0.237 0.98 0.653 1.189 0.881 1.226-0.241-0.327-0.397-1.024-0.397-1.036-0.004-0.018-0.003-0.037 0.002-0.055s0.016-0.034 0.030-0.046l0.461-0.383c-0.068-0.265-0.137-0.53-0.208-0.794-0.241-0.944-0.633-1.613-1.097-1.879-0.268-0.153-0.485-0.137-0.621-0.097-0.067 0.019-0.13 0.052-0.184 0.097-0.084 0.065-0.148 0.161-0.2 0.286-0.024 0.057-0.044 0.121-0.060 0.194-0.004 0.012-0.008 0.020-0.008 0.032-0.056 0.266-0.068 0.621-0.040 1.080 0.024 0.423 0.128 0.972 0.3 1.649 0.22 0.883 0.553 1.98 0.973 3.302 0.769 2.415 2.391 2.089 2.407 2.085 0.026-0.005 0.053 0 0.075 0.014s0.038 0.036 0.045 0.062c0.005 0.026 0 0.053-0.014 0.076s-0.036 0.039-0.062 0.045c-0.004 0-0.096 0.020-0.244 0.020-0.204 0-0.521-0.036-0.869-0.202 0 0.169-0.020 1.459-0.276 2.516 0.929 0.173 4.080-1.137 4.080-1.137l0.508-3.943c0 0.004 2.343-3.064-0.232-6.499v0zM13.398 19.812c-0.044 0.020-1.053 0.54-0.725 1.947 0.003 0.013 0.003 0.026 0.001 0.039s-0.007 0.026-0.014 0.037c-0.007 0.011-0.016 0.021-0.027 0.029s-0.023 0.013-0.036 0.016c-0.008 0-0.016 0.004-0.024 0.004-0.044 0-0.088-0.032-0.096-0.077-0.368-1.568 0.821-2.169 0.833-2.177 0.023-0.012 0.050-0.013 0.075-0.005s0.045 0.026 0.057 0.049c0.007 0.012 0.011 0.025 0.012 0.038s0 0.027-0.004 0.040c-0.004 0.013-0.011 0.025-0.020 0.035s-0.020 0.018-0.032 0.024v-0zM12.477 7.011c-0.312 0.181-1.197 0.649-0.557 2.298 0.164 0.423 0.32 0.738 0.328 1.226s-0.2 1.347 0.472 1.326c0.673-0.020 0.28-0.798 0.533-1.145 0.252-0.343 0.332-0.262 0.4-0.911 0.072-0.649 0.38-0.294 0.312-1.185-0.072-0.891-0.14-1.145-0.372-1.468s-0.805-0.323-1.117-0.141h-0z"></path>
</symbol>
</defs>
</svg>
