<svg width="20" height="16" viewBox="0 0 20 16" fill="none" xmlns="http://www.w3.org/2000/svg">
<path d="M19.77 1.07397C19.6428 0.860721 19.4434 0.700032 19.208 0.620972C18.572 0.383971 17.684 0.490976 17.325 0.968975C15.089 3.94098 13.027 6.97397 10.869 9.97197C10.606 10.337 10.343 10.7 10.076 11.062C7.53701 7.73297 5.18601 4.33398 2.57801 1.03198C1.91501 0.193975 -0.171987 0.571974 0.0110135 1.52197C0.584014 4.48297 1.50702 5.03797 4.55302 10.828C4.83002 11.353 6.33702 13.451 6.83002 13.891C7.26202 14.277 7.69201 14.683 8.18301 15.033C8.96301 15.59 10.153 15.651 11.053 15.193C11.677 14.877 12.729 13.408 13.128 12.948C14.657 11.181 15.941 9.09098 16.58 7.99698C17.853 5.82698 18.724 4.03497 19.934 1.84697C20.072 1.59597 19.983 1.30697 19.769 1.07397L19.77 1.07397Z" fill="white"/>
</svg>
